<svg width="18" height="18" viewBox="0 0 18 18" fill="none" xmlns="http://www.w3.org/2000/svg">
<path d="M12.9227 9.03196C12.5768 8.86753 12.2239 8.72589 11.8648 8.60723C13.0279 7.73423 13.7816 6.34412 13.7816 4.78125C13.7816 2.14488 11.6368 0 9.00035 0C6.36395 0 4.2191 2.14488 4.2191 4.78125C4.2191 6.34584 4.97454 7.73733 6.13979 8.61015C5.07217 8.96164 4.07039 9.50857 3.19359 10.2298C1.58583 11.5522 0.467966 13.3969 0.0459855 15.4239C-0.0862723 16.059 0.0721769 16.7113 0.480622 17.2136C0.887064 17.7134 1.48975 18 2.13409 18H10.7933C11.1817 18 11.4964 17.6852 11.4964 17.2969C11.4964 16.9085 11.1817 16.5938 10.7933 16.5938H2.13409C1.83393 16.5938 1.65284 16.4262 1.57163 16.3264C1.43139 16.1539 1.37711 15.9294 1.4227 15.7104C2.15237 12.2055 5.24387 9.64526 8.81395 9.55891C8.87579 9.56131 8.93791 9.5625 9.00035 9.5625C9.06339 9.5625 9.12614 9.56127 9.18858 9.55884C10.2826 9.58451 11.3349 9.83419 12.319 10.302C12.6698 10.4687 13.0892 10.3196 13.2559 9.96884C13.4226 9.61812 13.2735 9.19867 12.9227 9.03196ZM9.17184 8.15193C9.11479 8.15091 9.05762 8.15038 9.00035 8.15038C8.94361 8.15038 8.88687 8.15094 8.8302 8.152C7.04795 8.06309 5.62535 6.58519 5.62535 4.78125C5.62535 2.92025 7.13936 1.40625 9.00035 1.40625C10.8613 1.40625 12.3754 2.92025 12.3754 4.78125C12.3754 6.58473 10.9535 8.06235 9.17184 8.15193Z" fill="#7987A1"/>
<path d="M17.2969 13.957H15.3633V12.0234C15.3633 11.6351 15.0485 11.3203 14.6602 11.3203C14.2718 11.3203 13.957 11.6351 13.957 12.0234V13.957H12.0234C11.6351 13.957 11.3203 14.2718 11.3203 14.6602C11.3203 15.0485 11.6351 15.3633 12.0234 15.3633H13.957V17.2969C13.957 17.6852 14.2718 18 14.6602 18C15.0485 18 15.3633 17.6852 15.3633 17.2969V15.3633H17.2969C17.6852 15.3633 18 15.0485 18 14.6602C18 14.2718 17.6852 13.957 17.2969 13.957Z" fill="#7987A1"/>
</svg>
