<svg width="18" height="18" viewBox="0 0 18 18" fill="none" xmlns="http://www.w3.org/2000/svg">
<path d="M11.4609 14.7656H6.53906C6.24783 14.7656 6.01172 15.0017 6.01172 15.293C6.01172 15.5842 6.24783 15.8203 6.53906 15.8203H11.4609C11.7522 15.8203 11.9883 15.5842 11.9883 15.293C11.9883 15.0017 11.7522 14.7656 11.4609 14.7656Z" fill="#3499FF"/>
<path d="M17.9861 10.9538L15.8415 1.81315C15.7856 1.57475 15.573 1.40625 15.3281 1.40625H13.043V0.527344C13.043 0.236109 12.8069 0 12.5156 0H5.48438C5.19314 0 4.95703 0.236109 4.95703 0.527344V1.40625H2.67188C2.42701 1.40625 2.21439 1.57475 2.15845 1.81315L0.0139219 10.9538C0.00467578 10.9933 0 11.0337 0 11.0742V17.4727C0 17.7639 0.236109 18 0.527344 18H17.4727C17.7639 18 18 17.7639 18 17.4727V11.0742C18 11.0337 17.9953 10.9933 17.9861 10.9538ZM14.9102 2.46094L16.8073 10.5469H15.1523V7.55859C15.1523 7.26736 14.9162 7.03125 14.625 7.03125H14.0977V4.04297C14.0977 3.75173 13.8615 3.51562 13.5703 3.51562H13.043V2.46094H14.9102ZM13.043 4.57031V7.03125H4.95703V4.57031H13.043ZM14.0977 8.08594V10.5469H12.1641C11.9371 10.5469 11.7356 10.6921 11.6638 10.9075L11.0808 12.6562H6.91917L6.33625 10.9075C6.26442 10.6921 6.06291 10.5469 5.83594 10.5469H3.90234V8.08594H14.0977ZM11.9883 1.05469V3.51562H6.01172V1.05469H11.9883ZM3.08981 2.46094H4.95703V3.51562H4.42969C4.13845 3.51562 3.90234 3.75173 3.90234 4.04297V7.03125H3.375C3.08377 7.03125 2.84766 7.26736 2.84766 7.55859V10.5469H1.19275L3.08981 2.46094ZM1.05469 16.9453V11.6016H5.45583L6.03875 13.3503C6.11058 13.5657 6.31209 13.7109 6.53906 13.7109H11.4609C11.6879 13.7109 11.8894 13.5657 11.9612 13.3503L12.5442 11.6016H16.9453V16.9453H1.05469Z" fill="#3499FF"/>
</svg>
