<svg width="18" height="18" viewBox="0 0 18 18" fill="none" xmlns="http://www.w3.org/2000/svg">
<path d="M13.0601 8.81665C12.6402 8.81665 12.3421 9.19912 12.3421 9.619C12.3421 9.619 12.334 10.9259 12.3337 12.0205C12.3333 12.8306 12.2996 14.172 11.8771 14.8629C11.2845 15.8321 10.2171 16.4804 9.00034 16.4804C7.14116 16.4804 5.62887 14.9681 5.62887 13.1089V3.42831C5.62887 2.37587 6.48513 1.51999 7.5372 1.51999C8.58927 1.51999 9.44552 2.37624 9.44552 3.42831V13.0458C9.44552 13.3627 9.18773 13.6201 8.87127 13.6201C8.5548 13.6201 8.29701 13.3627 8.29701 13.0458V5.81188C8.29701 5.39201 7.95671 5.05171 7.53683 5.05171C7.11696 5.05171 6.77666 5.39201 6.77666 5.81188V13.1085C6.77666 13.1302 6.78142 13.1507 6.78289 13.172C6.8489 14.2681 7.75869 15.1401 8.8709 15.1401C9.48916 15.1401 10.0451 14.8706 10.4283 14.443C10.9688 13.8398 10.9637 12.4514 10.964 11.6414C10.9651 9.73157 10.9651 6.41364 10.9655 4.50422C10.9655 3.69417 10.96 3.0374 10.9534 3.0374C10.9468 3.0374 10.8903 2.35314 10.4712 1.6597C9.87053 0.665933 8.78032 0 7.53646 0C6.29261 0 5.2024 0.665933 4.60174 1.6597C4.18296 2.35314 4.12649 3.0374 4.11952 3.0374C4.11256 3.0374 4.10742 3.69417 4.10742 4.50422V13.1085C4.10742 15.8056 6.30177 18 8.99924 18C11.6974 18.0004 13.8918 15.8056 13.8918 13.1085L13.8815 9.63806C13.8815 9.21819 13.48 8.81665 13.0601 8.81665Z" fill="#7987A1"/>
</svg>
