<svg width="18" height="18" viewBox="0 0 18 18" fill="none" xmlns="http://www.w3.org/2000/svg">
<path d="M16.0714 1.92857H14.1429V0.642869C14.1429 0.287816 13.855 0 13.5 0C13.1449 0 12.8571 0.287816 12.8571 0.642869V1.92857H5.14284V0.642869C5.14284 0.287816 4.85502 0 4.50001 0C4.14499 0 3.85714 0.287816 3.85714 0.642869V1.92857H1.92857C0.863449 1.92857 0 2.79202 0 3.85714V16.0714C0 17.1365 0.863449 18 1.92857 18H16.0714C17.1365 18 18 17.1365 18 16.0714V3.85714C18 2.79202 17.1365 1.92857 16.0714 1.92857ZM16.7143 16.0714C16.7143 16.4265 16.4264 16.7143 16.0714 16.7143H1.92857C1.57352 16.7143 1.2857 16.4265 1.2857 16.0714V7.71428H16.7143V16.0714ZM16.7143 6.42858H1.2857V3.85714C1.2857 3.50209 1.57352 3.21427 1.92857 3.21427H3.85714V4.49997C3.85714 4.85502 4.14496 5.14284 4.50001 5.14284C4.85506 5.14284 5.14288 4.85502 5.14288 4.49997V3.21427H12.8572V4.49997C12.8572 4.85502 13.145 5.14284 13.5 5.14284C13.8551 5.14284 14.1429 4.85502 14.1429 4.49997V3.21427H16.0715C16.4265 3.21427 16.7143 3.50209 16.7143 3.85714V6.42858H16.7143Z" fill="#7987A1"/>
<path d="M5.14293 9H3.85723C3.50217 9 3.21436 9.28782 3.21436 9.64288C3.21436 9.99793 3.50217 10.2858 3.85723 10.2858H5.14293C5.49798 10.2858 5.7858 9.99793 5.7858 9.64288C5.7858 9.28782 5.49798 9 5.14293 9Z" fill="#7987A1"/>
<path d="M9.64294 9H8.35723C8.00217 9 7.71436 9.28782 7.71436 9.64288C7.71436 9.99793 8.00217 10.2858 8.35723 10.2858H9.64294C9.99799 10.2858 10.2858 9.99793 10.2858 9.64288C10.2858 9.28782 9.99799 9 9.64294 9Z" fill="#7987A1"/>
<path d="M14.1429 9H12.8572C12.5022 9 12.2144 9.28782 12.2144 9.64288C12.2144 9.99793 12.5022 10.2858 12.8572 10.2858H14.1429C14.498 10.2858 14.7858 9.99793 14.7858 9.64288C14.7858 9.28782 14.4979 9 14.1429 9Z" fill="#7987A1"/>
<path d="M5.14293 11.5713H3.85723C3.50217 11.5713 3.21436 11.8591 3.21436 12.2142C3.21436 12.5692 3.50217 12.857 3.85723 12.857H5.14293C5.49798 12.857 5.7858 12.5692 5.7858 12.2142C5.7858 11.8591 5.49798 11.5713 5.14293 11.5713Z" fill="#7987A1"/>
<path d="M9.64294 11.5713H8.35723C8.00217 11.5713 7.71436 11.8591 7.71436 12.2142C7.71436 12.5692 8.00217 12.857 8.35723 12.857H9.64294C9.99799 12.857 10.2858 12.5692 10.2858 12.2142C10.2858 11.8591 9.99799 11.5713 9.64294 11.5713Z" fill="#7987A1"/>
<path d="M14.1429 11.5713H12.8572C12.5022 11.5713 12.2144 11.8591 12.2144 12.2142C12.2144 12.5692 12.5022 12.857 12.8572 12.857H14.1429C14.498 12.857 14.7858 12.5692 14.7858 12.2142C14.7858 11.8591 14.4979 11.5713 14.1429 11.5713Z" fill="#7987A1"/>
<path d="M5.14293 14.1431H3.85723C3.50217 14.1431 3.21436 14.4309 3.21436 14.7859C3.21436 15.141 3.50217 15.4288 3.85723 15.4288H5.14293C5.49798 15.4288 5.7858 15.141 5.7858 14.7859C5.7858 14.4308 5.49798 14.1431 5.14293 14.1431Z" fill="#7987A1"/>
<path d="M9.64294 14.1431H8.35723C8.00217 14.1431 7.71436 14.4309 7.71436 14.7859C7.71436 15.141 8.00217 15.4288 8.35723 15.4288H9.64294C9.99799 15.4288 10.2858 15.141 10.2858 14.7859C10.2858 14.4309 9.99799 14.1431 9.64294 14.1431Z" fill="#7987A1"/>
<path d="M14.1429 14.1431H12.8572C12.5022 14.1431 12.2144 14.4309 12.2144 14.7859C12.2144 15.141 12.5022 15.4288 12.8572 15.4288H14.1429C14.498 15.4288 14.7858 15.141 14.7858 14.7859C14.7858 14.4309 14.4979 14.1431 14.1429 14.1431Z" fill="#7987A1"/>
</svg>
