<svg width="46" height="38" viewBox="0 0 46 38" fill="none" xmlns="http://www.w3.org/2000/svg">
<path d="M44.4696 6.53839C43.5513 5.57641 42.2833 5.00797 40.8403 5.00797H33.5818V4.92052C33.5818 3.82736 33.1445 2.77793 32.4011 2.07831C31.6578 1.33497 30.6521 0.897705 29.5589 0.897705H16.4411C15.3042 0.897705 14.2985 1.33497 13.5551 2.07831C12.8118 2.82166 12.3745 3.82736 12.3745 4.92052V5.00797H5.1597C3.71673 5.00797 2.44867 5.57641 1.53042 6.53839C0.612167 7.45664 0 8.76843 0 10.1677V31.9433C0 33.3863 0.568441 34.6544 1.53042 35.5726C2.44867 36.4909 3.76046 37.103 5.1597 37.103H40.8403C42.2833 37.103 43.5513 36.5346 44.4696 35.5726C45.3878 34.6544 46 33.3426 46 31.9433V10.1677C46 8.7247 45.4316 7.45664 44.4696 6.53839ZM43.7262 31.9433H43.6825C43.6825 32.7304 43.3764 33.43 42.8517 33.9547C42.327 34.4795 41.6274 34.7855 40.8403 34.7855H5.1597C4.37262 34.7855 3.673 34.4795 3.14829 33.9547C2.62357 33.43 2.31749 32.7304 2.31749 31.9433V10.1677C2.31749 9.3806 2.62357 8.68097 3.14829 8.15626C3.673 7.63155 4.37262 7.32546 5.1597 7.32546H13.5989C14.2548 7.32546 14.7795 6.80075 14.7795 6.14485V4.87679C14.7795 4.3958 14.9544 3.95854 15.2605 3.65246C15.5665 3.34637 16.0038 3.17147 16.4848 3.17147H29.5589C30.0399 3.17147 30.4772 3.34637 30.7833 3.65246C31.0894 3.95854 31.2643 4.3958 31.2643 4.87679V6.14485C31.2643 6.80075 31.789 7.32546 32.4449 7.32546H40.884C41.6711 7.32546 42.3707 7.63155 42.8954 8.15626C43.4202 8.68097 43.7262 9.3806 43.7262 10.1677V31.9433Z" fill="#7C828D" fill-opacity="0.4"/>
<path d="M23.0002 10.2988C20.0268 10.2988 17.3158 11.5232 15.3918 13.4471C13.4241 15.4148 12.2435 18.0821 12.2435 21.0555C12.2435 24.0289 13.4679 26.7399 15.3918 28.6639C17.3595 30.6316 20.0268 31.8122 23.0002 31.8122C25.9736 31.8122 28.6846 30.5878 30.6086 28.6639C32.5763 26.6962 33.7569 24.0289 33.7569 21.0555C33.7569 18.0821 32.5325 15.3711 30.6086 13.4471C28.6846 11.5232 25.9736 10.2988 23.0002 10.2988ZM28.947 27.046C27.4165 28.5327 25.3177 29.4947 23.0002 29.4947C20.6827 29.4947 18.5838 28.5327 17.0534 27.046C15.523 25.5156 14.6048 23.4167 14.6048 21.0992C14.6048 18.7817 15.5667 16.6829 17.0534 15.1524C18.5838 13.622 20.6827 12.7038 23.0002 12.7038C25.3177 12.7038 27.4165 13.6658 28.947 15.1524C30.4774 16.6829 31.3956 18.7817 31.3956 21.0992C31.4394 23.4167 30.4774 25.5156 28.947 27.046Z" fill="#7C828D" fill-opacity="0.4"/>
<path d="M38.5667 14.5398C39.75 14.5398 40.7092 13.5805 40.7092 12.3972C40.7092 11.2139 39.75 10.2546 38.5667 10.2546C37.3833 10.2546 36.4241 11.2139 36.4241 12.3972C36.4241 13.5805 37.3833 14.5398 38.5667 14.5398Z" fill="#7C828D" fill-opacity="0.4"/>
</svg>
