<svg width="42" height="42" viewBox="0 0 42 42" fill="none" xmlns="http://www.w3.org/2000/svg">
<path d="M39.0906 0H2.90923C1.30516 0 0 1.50925 0 3.36414V31.7494C0 33.6043 1.30516 35.1135 2.90923 35.1135H24.0071L23.3701 39.6061C23.2502 40.4517 23.4921 41.2178 24.0173 41.6549C24.5423 42.0921 25.2468 42.1155 25.9026 41.7159L30.4545 38.9454C30.5815 38.87 30.9315 38.87 31.0585 38.9454L35.6103 41.7159C35.9217 41.9054 36.2442 41.9998 36.5533 41.9998C36.895 41.9998 37.2202 41.8843 37.4958 41.6547C38.0208 41.2176 38.2627 40.4513 38.143 39.6057L37.5061 35.1133H39.0908C40.6948 35.1133 42 33.6041 42 31.7492V3.36414C41.9998 1.50906 40.6947 0 39.0906 0ZM30.7566 29.3472C27.9609 29.3472 25.6862 26.7168 25.6862 23.484C25.6862 20.2511 27.9609 17.6208 30.7566 17.6208C33.5523 17.6208 35.8269 20.2511 35.8269 23.484C35.8269 26.7168 33.5523 29.3472 30.7566 29.3472ZM32.22 36.3938C31.372 35.8775 30.141 35.8775 29.2931 36.3938L26.075 38.3525L27.0981 31.1361C28.1831 31.8326 29.4303 32.2305 30.7567 32.2305C32.0832 32.2305 33.3302 31.8324 34.4154 31.1361L34.814 33.9495C34.815 33.9541 34.8154 33.9591 34.8162 33.9637L35.4384 38.3527L32.22 36.3938ZM39.5062 31.7494C39.5062 32.0099 39.3159 32.23 39.0906 32.23H37.0972L36.6419 29.0179C36.64 29.0052 36.637 28.9931 36.6349 28.9804C37.688 27.4775 38.3207 25.5647 38.3207 23.484C38.3207 18.661 34.9276 14.7372 30.7567 14.7372C26.5859 14.7372 23.1927 18.661 23.1927 23.484C23.1927 25.5647 23.8254 27.4771 24.8786 28.9804C24.8764 28.9929 24.8734 29.0052 24.8716 29.0177L24.4159 32.2325C24.402 32.2319 24.3885 32.23 24.3745 32.23H2.90923C2.68397 32.23 2.49363 32.0099 2.49363 31.7494V3.36414C2.49363 3.10366 2.68397 2.88355 2.90923 2.88355H39.0906C39.3159 2.88355 39.5062 3.10366 39.5062 3.36414V31.7494Z" fill="#7987A1"/>
<path d="M34.6813 8.29736H6.42015C5.73141 8.29736 5.17334 8.9427 5.17334 9.73914C5.17334 10.5356 5.73141 11.1809 6.42015 11.1809H34.6813C35.37 11.1809 35.9281 10.5356 35.9281 9.73914C35.9281 8.9427 35.37 8.29736 34.6813 8.29736Z" fill="#7987A1"/>
<path d="M18.3896 16.1152H6.42015C5.73141 16.1152 5.17334 16.7606 5.17334 17.557C5.17334 18.3534 5.73141 18.9988 6.42015 18.9988H18.3896C19.0783 18.9988 19.6364 18.3534 19.6364 17.557C19.6364 16.7606 19.0783 16.1152 18.3896 16.1152Z" fill="#7987A1"/>
</svg>
