<svg width="18" height="16" viewBox="0 0 18 16" fill="none" xmlns="http://www.w3.org/2000/svg">
<path d="M16.7532 0.217041H1.24682C0.559358 0.217041 0 0.7764 0 1.46386V11.984C0 12.6715 0.559358 13.2308 1.24682 13.2308H10.2888L10.0158 14.8959C9.96443 15.2093 10.0681 15.4932 10.2932 15.6552C10.5182 15.8172 10.8201 15.8259 11.1012 15.6778L13.052 14.651C13.1064 14.6231 13.2564 14.6231 13.3108 14.651L15.2616 15.6778C15.3951 15.7481 15.5333 15.783 15.6657 15.783C15.8122 15.783 15.9516 15.7402 16.0697 15.6552C16.2947 15.4931 16.3984 15.2091 16.3471 14.8957L16.0741 13.2308H16.7533C17.4407 13.2308 18.0001 12.6714 18.0001 11.9839V1.46386C18 0.776328 17.4406 0.217041 16.7532 0.217041ZM13.1814 11.0937C11.9833 11.0937 11.0084 10.1188 11.0084 8.92069C11.0084 7.72253 11.9833 6.74766 13.1814 6.74766C14.3796 6.74766 15.3545 7.72253 15.3545 8.92069C15.3545 10.1188 14.3796 11.0937 13.1814 11.0937ZM13.8086 13.7053C13.4452 13.514 12.9176 13.514 12.5543 13.7053L11.1751 14.4313L11.6135 11.7567C12.0785 12.0149 12.613 12.1623 13.1815 12.1623C13.75 12.1623 14.2844 12.0148 14.7495 11.7567L14.9204 12.7994C14.9208 12.8011 14.9209 12.803 14.9213 12.8047L15.188 14.4313L13.8086 13.7053ZM16.9313 11.984C16.9313 12.0806 16.8497 12.1621 16.7532 12.1621H15.8989L15.7037 10.9717C15.7029 10.967 15.7017 10.9625 15.7007 10.9578C16.1521 10.4008 16.4232 9.69186 16.4232 8.92069C16.4232 7.13318 14.969 5.67896 13.1815 5.67896C11.394 5.67896 9.93978 7.13318 9.93978 8.92069C9.93978 9.69186 10.2109 10.4006 10.6623 10.9578C10.6614 10.9624 10.6601 10.967 10.6593 10.9716L10.464 12.1631C10.458 12.1628 10.4523 12.1621 10.4463 12.1621H1.24682C1.15028 12.1621 1.0687 12.0806 1.0687 11.984V1.46386C1.0687 1.36732 1.15028 1.28574 1.24682 1.28574H16.7532C16.8497 1.28574 16.9313 1.36732 16.9313 1.46386V11.984Z" fill="#7987A1"/>
<path d="M14.8635 3.29219H2.75157C2.4564 3.29219 2.21722 3.53137 2.21722 3.82654C2.21722 4.12172 2.4564 4.36089 2.75157 4.36089H14.8635C15.1587 4.36089 15.3979 4.12172 15.3979 3.82654C15.3979 3.53137 15.1587 3.29219 14.8635 3.29219Z" fill="#7987A1"/>
<path d="M7.88134 6.18965H2.75157C2.4564 6.18965 2.21722 6.42883 2.21722 6.724C2.21722 7.01918 2.4564 7.25835 2.75157 7.25835H7.88134C8.17652 7.25835 8.41569 7.01918 8.41569 6.724C8.41569 6.42883 8.17652 6.18965 7.88134 6.18965Z" fill="#7987A1"/>
</svg>
