<svg width="18" height="19" viewBox="0 0 18 19" fill="none" xmlns="http://www.w3.org/2000/svg">
<g clip-path="url(#clip0)">
<path d="M8.99998 0C4.02943 0 0 4.21438 0 9.41307C0 14.6118 4.02943 18.8261 8.99998 18.8261C13.9705 18.8261 18 14.6118 18 9.41307C17.9947 4.2167 13.9683 0.00555487 8.99998 0ZM8.99998 17.4814C4.7395 17.4814 1.2857 13.8691 1.2857 9.41307C1.2857 4.95703 4.7395 1.34471 8.99998 1.34471C13.2605 1.34471 16.7143 4.95703 16.7143 9.41307C16.7097 13.8671 13.2586 17.4766 8.99998 17.4814Z" fill="#7987A1"/>
<path d="M13.9386 5.57591C13.6894 5.32425 13.2945 5.32425 13.0454 5.57591L7.07131 11.8242L4.95436 9.61005C4.70772 9.34294 4.30072 9.33557 4.04537 9.59354C3.78999 9.85151 3.78294 10.2772 4.02959 10.5442C4.03475 10.5498 4.04002 10.5554 4.04537 10.5608L6.61681 13.2502C6.86783 13.5127 7.27479 13.5127 7.5258 13.2502L13.9544 6.52658C14.201 6.25951 14.194 5.83388 13.9386 5.57591Z" fill="#7987A1"/>
</g>
<defs>
<clipPath id="clip0">
<rect width="18" height="18.8262" fill="white"/>
</clipPath>
</defs>
</svg>
