<svg width="25" height="25" viewBox="0 0 39 39" fill="none" xmlns="http://www.w3.org/2000/svg">
<path d="M18.86 2.37675C15.5313 2.69668 13.1167 5.89589 13.7413 9.15605C14.1679 11.3727 15.6761 13.0256 17.9003 13.7264C18.6468 13.9549 20.2387 13.9777 21.0233 13.7644C22.6382 13.3227 24.0016 12.1953 24.7481 10.7023C25.1518 9.89492 25.2889 9.34648 25.3423 8.3791C25.4565 6.01015 24.1387 3.87734 21.9221 2.86425C20.9471 2.41484 19.995 2.2625 18.86 2.37675ZM20.3378 3.38222C21.8993 3.66406 23.1714 4.60859 23.8493 5.97968C24.2835 6.86328 24.3977 7.41933 24.352 8.34101C24.2911 9.63593 23.8493 10.649 22.9581 11.5326C22.0669 12.4238 21.0385 12.8732 19.7436 12.9342C18.3421 12.9951 17.1995 12.5838 16.1788 11.6316C15.219 10.7404 14.7315 9.70449 14.6477 8.40957C14.4878 5.91875 16.293 3.725 18.8067 3.35937C19.4313 3.26796 19.7055 3.26796 20.3378 3.38222Z" fill="#3499FF" stroke="#3499FF" stroke-width="0.5"/>
<path d="M13.0255 15.3488C11.1593 15.722 10.1691 16.6284 8.92749 19.104C7.26695 22.387 5.62925 25.8986 5.47691 26.4699C5.14175 27.7648 5.53784 28.8007 6.63472 29.4558C6.86324 29.5929 7.90679 30.0347 8.95034 30.446C10.7861 31.162 10.8775 31.1849 11.464 31.1925C11.982 31.1925 12.1419 31.162 12.4619 30.9945L12.8351 30.7964L13.0941 31.223C14.2671 33.1501 16.598 35.2296 18.9517 36.4484C19.5992 36.7911 19.4773 36.814 20.8027 36.0294C22.905 34.7726 24.5351 33.2796 25.6853 31.5734C25.9367 31.1925 26.1576 30.8726 26.1728 30.8574C26.188 30.8421 26.3632 30.9107 26.5613 31.0097C26.8507 31.1544 27.0488 31.1849 27.5363 31.1849C28.1228 31.1849 28.2142 31.162 29.9585 30.4841C30.964 30.0956 31.939 29.6995 32.1294 29.6005C32.6779 29.3187 33.1806 28.8388 33.4168 28.3513C33.5996 27.9781 33.63 27.8333 33.6224 27.2697C33.6224 26.8202 33.5691 26.4851 33.4548 26.1652C33.2263 25.5025 29.989 18.8374 29.4863 17.9767C28.8845 16.956 28.1076 16.1866 27.2621 15.7829C26.1271 15.2345 26.1195 15.2345 19.4316 15.2421C14.8841 15.2497 13.4064 15.2726 13.0255 15.3488ZM25.9062 16.3314C27.1173 16.5904 27.8486 17.1845 28.7017 18.5937C29.1892 19.3935 32.4494 26.188 32.5712 26.6527C32.7236 27.2392 32.7084 27.5667 32.5103 27.9552C32.2209 28.5265 31.8324 28.7245 28.6789 29.9128C27.3763 30.4003 26.9421 30.3394 26.4013 29.5777C26.2337 29.3415 26.1804 29.1511 26.15 28.7779C26.0585 27.6886 26.3328 27.4144 28.3361 26.5765C29.1511 26.2413 29.8824 25.9062 29.9585 25.8376C30.2404 25.5863 30.0195 25.0607 29.631 25.0607C29.3949 25.0607 26.7974 26.1195 26.3556 26.3937C25.3349 27.0335 24.916 28.2523 25.2892 29.5015L25.4644 30.0804L25.0988 30.6669C24.0552 32.3351 22.4404 33.8509 20.4066 35.0849C19.9572 35.3515 19.5535 35.5724 19.5078 35.5724C19.3935 35.5724 18.3576 34.9478 17.6339 34.445C15.9886 33.3025 14.7546 32.038 13.871 30.5908L13.5435 30.0652L13.7187 29.5396C14.0615 28.4656 13.7949 27.4144 12.9951 26.6831C12.6523 26.3632 12.3628 26.2109 11.0755 25.6853C9.42261 24.9921 9.18648 24.954 8.98843 25.312C8.88941 25.4949 8.88941 25.5406 8.98843 25.7234C9.07984 25.8833 9.40738 26.0509 10.6185 26.5536C12.5685 27.3687 12.8884 27.6505 12.8884 28.5646C12.8884 29.6081 12.1343 30.3622 11.2507 30.2175C10.9003 30.1642 7.51831 28.8388 7.1146 28.6027C6.92417 28.4884 6.68042 28.2599 6.56617 28.0923C6.39097 27.8257 6.3605 27.7038 6.36812 27.2773C6.37574 27.0031 6.43667 26.6146 6.50523 26.4089C6.71851 25.8148 10.0853 18.9365 10.4662 18.3271C11.1365 17.2454 12.0277 16.5599 13.0484 16.339C13.7568 16.1866 25.1826 16.179 25.9062 16.3314Z" fill="#3499FF" stroke="#3499FF" stroke-width="0.5"/>
<path d="M15.3943 19.3021C12.7816 20.2085 11.3648 20.7417 11.3039 20.8332C11.2201 20.9474 11.1973 21.3587 11.1973 22.6232C11.1973 24.1695 11.2049 24.2837 11.3496 24.4132C11.5324 24.5808 11.86 24.5884 12.0199 24.4208C12.1266 24.3142 12.157 24.0628 12.1875 22.8746L12.2256 21.4501L15.8666 20.1857L19.5076 18.9212L22.227 19.8658C23.7199 20.3837 25.3652 20.955 25.8832 21.1226L26.8125 21.4425V22.8365C26.8125 24.2152 26.8125 24.2304 27.0029 24.4132C27.2238 24.6417 27.4447 24.657 27.6504 24.4513C27.7951 24.3066 27.8027 24.1999 27.8027 22.6003C27.8027 21.0693 27.7875 20.8789 27.6732 20.7798C27.5285 20.658 19.6828 17.9005 19.4924 17.9081C19.4314 17.9081 17.5881 18.5328 15.3943 19.3021Z" fill="#3499FF" stroke="#3499FF" stroke-width="0.5"/>
<path d="M22.2811 23.3926C22.1973 23.4383 21.3137 24.2914 20.3235 25.2816L18.5106 27.0793L17.6956 26.2643C17.2385 25.8225 16.7967 25.4187 16.7053 25.373C16.4463 25.2435 16.0045 25.274 15.7227 25.4492C15.2961 25.7082 14.4811 26.6451 14.4278 26.9346C14.3135 27.5668 14.3668 27.643 16.1721 29.4559C17.9393 31.2307 18.2211 31.4363 18.6934 31.3449C18.8762 31.3068 19.5465 30.6822 21.5499 28.6941C22.9895 27.2621 24.2616 25.9519 24.3834 25.792C24.6196 25.4721 24.6729 25.0912 24.5282 24.718C24.4368 24.4742 23.8274 23.8191 23.4313 23.5221C23.1114 23.2935 22.5858 23.2326 22.2811 23.3926ZM23.1495 24.7637L23.6141 25.1598L23.0047 25.8148C22.6772 26.1728 21.527 27.3459 20.4606 28.4123L18.5106 30.3547L16.9491 28.7932L15.3875 27.2316L15.8598 26.7594L16.3321 26.2795L17.3299 27.2697C18.0536 27.9781 18.3811 28.26 18.5106 28.26C18.6477 28.26 19.1885 27.7648 20.6434 26.3176C21.7098 25.2512 22.6086 24.3752 22.6391 24.3752C22.662 24.3752 22.8905 24.5504 23.1495 24.7637Z" fill="#3499FF" stroke="#3499FF" stroke-width="0.5"/>
</svg>
