<svg width="18" height="18" viewBox="0 0 18 18" fill="none" xmlns="http://www.w3.org/2000/svg">
<g clip-path="url(#clip0)">
<path d="M15.75 18H2.25C1.0095 18 0 16.9905 0 15.75V12.75C0 12.336 0.336 12 0.75 12C1.164 12 1.5 12.336 1.5 12.75V15.75C1.5 16.1632 1.83675 16.5 2.25 16.5H15.75C16.1632 16.5 16.5 16.1632 16.5 15.75V12.75C16.5 12.336 16.836 12 17.25 12C17.664 12 18 12.336 18 12.75V15.75C18 16.9905 16.9905 18 15.75 18Z" fill="#758184"/>
<path d="M12.5304 9.53025L9.53038 12.5303C9.23713 12.8235 8.76313 12.8235 8.46989 12.5303L5.46989 9.53025C5.25539 9.31575 5.19089 8.99325 5.30714 8.71275C5.42339 8.433 5.69714 8.25 6.00014 8.25H8.25014V0.75C8.25014 0.336 8.58613 0 9.00013 0C9.41413 0 9.75013 0.336 9.75013 0.75V8.25H12.0001C12.3031 8.25 12.5769 8.433 12.6931 8.71275C12.8094 8.99325 12.7449 9.31575 12.5304 9.53025Z" fill="#758184"/>
</g>
<defs>
<clipPath id="clip0">
<rect width="18" height="18" fill="white"/>
</clipPath>
</defs>
</svg>
