<svg width="16" height="16" viewBox="0 0 16 16" fill="none" xmlns="http://www.w3.org/2000/svg">
<g clip-path="url(#clip0)">
<path d="M15.5664 2.88699L13.1131 0.433681C12.5351 -0.144351 11.5995 -0.144444 11.0214 0.433681C10.6099 0.845212 1.56394 9.89124 1.39141 10.0637C1.32322 10.1319 1.275 10.2174 1.25204 10.3111L0.0156918 15.346C-0.0791832 15.7325 0.271504 16.0785 0.654161 15.9845C0.915442 15.9203 5.45785 14.8049 5.68907 14.7481C5.78269 14.7251 5.86825 14.6769 5.93641 14.6087C6.11816 14.427 15.1138 5.43134 15.5664 4.97871C16.1444 4.40068 16.1446 3.46509 15.5664 2.88699ZM1.24866 14.7515L1.29904 14.5464L1.45375 14.7011L1.24866 14.7515ZM2.65232 14.4068L1.59335 13.3478L2.05385 11.4726L4.5276 13.9463L2.65232 14.4068ZM5.56319 13.4891L2.51107 10.437L10.3925 2.55552L13.4446 5.60765L5.56319 13.4891ZM14.82 4.23227L14.2104 4.84187L11.1583 1.78974L11.7679 1.18015C11.9333 1.01474 12.2012 1.01459 12.3667 1.18015L14.82 3.63349C14.9855 3.79896 14.9855 4.06674 14.82 4.23227Z" fill="#7987A1" />
</g>
<defs>
<clipPath id="clip0">
<rect width="16" height="16" fill="white"/>
</clipPath>
</defs>
</svg>
