<svg width="18" height="18" viewBox="0 0 18 18" fill="none" xmlns="http://www.w3.org/2000/svg">
<g clip-path="url(#clip0)">
<path d="M18 7.13877V7.13719C18 7.12218 17.9992 7.10731 17.9979 7.09251C17.9976 7.08847 17.997 7.08446 17.9966 7.08041C17.9954 7.06881 17.9937 7.05732 17.9917 7.04593C17.991 7.04164 17.9903 7.03735 17.9894 7.03309C17.9866 7.01921 17.9834 7.00543 17.9795 6.99189C17.9791 6.99056 17.9788 6.98918 17.9784 6.98785C17.9743 6.974 17.9695 6.96039 17.9643 6.94696C17.9623 6.94183 17.9602 6.9368 17.958 6.9317C17.9542 6.92263 17.9501 6.91367 17.9457 6.90484C17.9432 6.89971 17.9408 6.89454 17.9381 6.88948C17.9315 6.87714 17.9245 6.86505 17.917 6.85324C17.9142 6.84884 17.9111 6.84462 17.9081 6.8403C17.9023 6.83168 17.8962 6.82325 17.8898 6.81502C17.8864 6.81063 17.883 6.80627 17.8794 6.80194C17.8702 6.79073 17.8606 6.77976 17.8504 6.76932C17.8496 6.76851 17.8489 6.76766 17.8481 6.76686C17.8372 6.75578 17.8256 6.74534 17.8136 6.73522C17.8122 6.73395 17.8109 6.73254 17.8094 6.73131L16.9102 5.98512V3.69192C16.9102 3.01343 16.3582 2.46145 15.6797 2.46145H12.6641L10.2348 0.445411C9.51926 -0.148308 8.48067 -0.148308 7.76517 0.445411L5.33588 2.46141H2.32031C1.64183 2.46141 1.08984 3.0134 1.08984 3.69188V5.98509L0.190582 6.73138C0.189105 6.73261 0.187805 6.73402 0.186328 6.73529C0.17441 6.74541 0.162809 6.75585 0.15191 6.76693C0.151102 6.76774 0.150328 6.76858 0.14952 6.76939C0.139359 6.77983 0.129762 6.7908 0.120516 6.80201C0.116965 6.8063 0.113555 6.8107 0.110145 6.81509C0.103781 6.82335 0.0976992 6.83179 0.0918281 6.84037C0.088875 6.84469 0.0857812 6.84891 0.0829687 6.85331C0.0754453 6.86508 0.0684492 6.87718 0.061875 6.88955C0.059168 6.89461 0.0567422 6.89978 0.0542461 6.90491C0.0498867 6.91374 0.0458086 6.9227 0.0419414 6.93177C0.0397969 6.93684 0.0376172 6.9419 0.0356484 6.94703C0.0304453 6.96046 0.0256289 6.97403 0.0215508 6.98792C0.0211641 6.98925 0.0208477 6.99059 0.0204609 6.99196C0.0165586 7.0055 0.0133594 7.01928 0.0105469 7.03316C0.00970313 7.03745 0.00896484 7.04171 0.00822656 7.046C0.00622266 7.05739 0.00460547 7.06888 0.00333984 7.08048C0.00291797 7.08453 0.00239062 7.08854 0.00203906 7.09258C0.00084375 7.10731 0 7.12218 0 7.13719V7.13877V7.13906V16.0662C0 16.6188 0.233367 17.1176 0.606305 17.4703C0.616887 17.4809 0.627504 17.4913 0.638824 17.5009C0.981844 17.8107 1.43603 17.9997 1.93359 17.9997H16.0664C16.564 17.9997 17.0182 17.8107 17.3613 17.5008C17.3725 17.4913 17.383 17.4809 17.3936 17.4704C17.7666 17.1177 18 16.6188 18 16.0661V7.13906C18 7.13899 18 7.13888 18 7.13877ZM2.32031 3.5161H15.6797C15.7766 3.5161 15.8555 3.59495 15.8555 3.69188V7.79398L15.5571 8.04162L9.56131 13.0174C9.23607 13.2873 8.76393 13.2873 8.43869 13.0174L2.44294 8.04166L2.14453 7.79398V3.69188C2.14453 3.59495 2.22339 3.5161 2.32031 3.5161ZM1.05469 16.0662V8.26008L1.28152 8.44834C1.28166 8.44845 1.2818 8.44859 1.28194 8.4487L6.43124 12.722L1.10869 16.3695C1.07378 16.2749 1.05469 16.1727 1.05469 16.0662ZM7.27513 13.4223L7.76517 13.829C8.48067 14.4228 9.51933 14.4227 10.2348 13.829L10.7249 13.4223L15.8654 16.9451H2.13455L7.27513 13.4223ZM11.5688 12.722L16.718 8.4487C16.7182 8.44859 16.7183 8.44845 16.7184 8.44834L16.9453 8.26008V16.0662C16.9453 16.1727 16.9262 16.2749 16.8913 16.3695L11.5688 12.722ZM8.43869 1.25706C8.76393 0.987169 9.23607 0.987169 9.56131 1.25706L11.0126 2.46145H6.98741L8.43869 1.25706Z" fill="#3499FF"/>
<path d="M4.62305 5.80066C4.62305 6.09189 4.85916 6.328 5.15039 6.328H10.1426C10.4338 6.328 10.6699 6.09189 10.6699 5.80066C10.6699 5.50942 10.4338 5.27332 10.1426 5.27332H5.15039C4.85916 5.27332 4.62305 5.50942 4.62305 5.80066Z" fill="#3499FF"/>
<path d="M5.15039 8.43738H12.8496C13.0953 8.43738 13.3011 8.26912 13.3597 8.04173C13.3706 7.99954 13.377 7.9556 13.377 7.91003C13.377 7.6188 13.1408 7.38269 12.8496 7.38269H5.15039C4.85916 7.38269 4.62305 7.6188 4.62305 7.91003C4.62305 7.9556 4.62945 7.99958 4.64031 8.04173C4.69888 8.26916 4.90472 8.43738 5.15039 8.43738Z" fill="#3499FF"/>
</g>
<defs>
<clipPath id="clip0">
<rect width="18" height="18" fill="white"/>
</clipPath>
</defs>
</svg>
