<svg width="20" height="20" viewBox="0 0 42 37" fill="none" xmlns="http://www.w3.org/2000/svg">
<path d="M42 10.9299V10.9262C42 10.8912 41.998 10.8565 41.9952 10.822C41.9943 10.8125 41.9931 10.8032 41.9921 10.7938C41.9892 10.7667 41.9854 10.7399 41.9807 10.7133C41.979 10.7033 41.9773 10.6933 41.9753 10.6833C41.9687 10.6509 41.9613 10.6188 41.9522 10.5872C41.9513 10.5841 41.9505 10.5809 41.9496 10.5778C41.94 10.5454 41.9289 10.5137 41.9167 10.4824C41.9121 10.4704 41.9071 10.4587 41.9021 10.4468C41.8931 10.4256 41.8835 10.4047 41.8733 10.3841C41.8674 10.3721 41.8618 10.3601 41.8555 10.3482C41.8402 10.3194 41.8239 10.2912 41.8063 10.2637C41.7998 10.2534 41.7925 10.2436 41.7857 10.2335C41.772 10.2134 41.7578 10.1937 41.7429 10.1745C41.735 10.1642 41.727 10.1541 41.7187 10.144C41.6971 10.1178 41.6748 10.0922 41.651 10.0679C41.6492 10.066 41.6473 10.064 41.6455 10.0621C41.62 10.0363 41.593 10.0119 41.5652 9.98829C41.5617 9.98533 41.5588 9.98205 41.5552 9.97918L39.457 8.23807V2.88725C39.457 1.30413 38.1691 0.016161 36.5859 0.016161H29.5496L23.8813 -4.68792C22.2116 -6.07326 19.7882 -6.07326 18.1187 -4.68792L12.4504 0.0160789H5.41406C3.83094 0.0160789 2.54297 1.30405 2.54297 2.88717V8.23799L0.444691 9.97935C0.441246 9.98222 0.438211 9.9855 0.434766 9.98845C0.406957 10.0121 0.379887 10.0364 0.354457 10.0623C0.35257 10.0642 0.350766 10.0661 0.348879 10.068C0.325172 10.0924 0.302777 10.118 0.281203 10.1441C0.272918 10.1542 0.264961 10.1644 0.257004 10.1747C0.242156 10.1939 0.227965 10.2136 0.214266 10.2336C0.207375 10.2437 0.200156 10.2536 0.193594 10.2638C0.176039 10.2913 0.159715 10.3195 0.144375 10.3484C0.138059 10.3602 0.132398 10.3723 0.126574 10.3843C0.116402 10.4048 0.106887 10.4258 0.0978633 10.4469C0.0928594 10.4587 0.0877734 10.4706 0.0831797 10.4825C0.0710391 10.5139 0.0598008 10.5455 0.0502852 10.5779C0.0493828 10.581 0.0486445 10.5842 0.0477422 10.5874C0.0386367 10.6189 0.0311719 10.6511 0.0246094 10.6835C0.0226406 10.6935 0.020918 10.7034 0.0191953 10.7134C0.0145195 10.74 0.0107461 10.7668 0.00779297 10.7939C0.00680859 10.8034 0.00557812 10.8127 0.00475781 10.8221C0.00196875 10.8565 0 10.8912 0 10.9262V10.9299V10.9306V31.7605C0 33.0499 0.544523 34.2138 1.41471 35.0368C1.4394 35.0615 1.46418 35.0859 1.49059 35.1081C2.29097 35.8312 3.35073 36.2722 4.51172 36.2722H37.4883C38.6494 36.2722 39.7092 35.8311 40.5097 35.1079C40.5358 35.0857 40.5604 35.0616 40.585 35.037C41.4553 34.214 42 33.05 42 31.7604V10.9306C42 10.9304 42 10.9302 42 10.9299ZM5.41406 2.47702H36.5859C36.8121 2.47702 36.9961 2.66101 36.9961 2.88717V12.4587L36.2998 13.0366L22.3097 24.6467C21.5508 25.2764 20.4492 25.2764 19.6903 24.6467L5.70019 13.0367L5.00391 12.4587V2.88717C5.00391 2.66101 5.1879 2.47702 5.41406 2.47702ZM2.46094 31.7605V13.5463L2.9902 13.9856C2.99053 13.9858 2.99086 13.9862 2.99119 13.9864L15.0062 23.9574L2.58694 32.4683C2.50548 32.2476 2.46094 32.0092 2.46094 31.7605ZM16.9753 25.5914L18.1187 26.5404C19.7882 27.9259 22.2118 27.9258 23.8813 26.5404L25.0247 25.5914L37.0193 33.8113H4.98061L16.9753 25.5914ZM26.9938 23.9575L39.0087 13.9864C39.0091 13.9862 39.0094 13.9858 39.0097 13.9856L39.539 13.5463V31.7605C39.539 32.0092 39.4944 32.2476 39.413 32.4683L26.9938 23.9575ZM19.6903 -2.79407C20.4492 -3.42382 21.5508 -3.42382 22.3097 -2.79407L25.696 0.016161H16.304L19.6903 -2.79407Z" fill="#7987A1"/>
</svg>
