<svg width="18" height="18" viewBox="0 0 18 18" fill="none" xmlns="http://www.w3.org/2000/svg">
<g clip-path="url(#clip0)">
<path d="M18 7.13882V7.13724C18 7.12223 17.9992 7.10736 17.9979 7.09256C17.9976 7.08851 17.997 7.08451 17.9966 7.08046C17.9954 7.06886 17.9937 7.05736 17.9917 7.04597C17.991 7.04169 17.9903 7.0374 17.9894 7.03314C17.9866 7.01926 17.9834 7.00547 17.9795 6.99194C17.9791 6.9906 17.9788 6.98923 17.9784 6.9879C17.9743 6.97404 17.9695 6.96044 17.9643 6.94701C17.9623 6.94188 17.9602 6.93685 17.958 6.93175C17.9542 6.92268 17.9501 6.91372 17.9457 6.90489C17.9432 6.89976 17.9408 6.89459 17.9381 6.88953C17.9315 6.87719 17.9245 6.8651 17.917 6.85328C17.9142 6.84889 17.9111 6.84467 17.9081 6.84035C17.9023 6.83173 17.8962 6.82329 17.8898 6.81507C17.8864 6.81067 17.883 6.80631 17.8794 6.80199C17.8702 6.79078 17.8606 6.77981 17.8504 6.76936C17.8496 6.76856 17.8489 6.76771 17.8481 6.7669C17.8372 6.75583 17.8256 6.74539 17.8136 6.73526C17.8122 6.734 17.8109 6.73259 17.8094 6.73136L16.9102 5.98517V3.69196C16.9102 3.01348 16.3582 2.46149 15.6797 2.46149H12.6641L10.2348 0.445459C9.51926 -0.14826 8.48067 -0.14826 7.76517 0.445459L5.33588 2.46146H2.32031C1.64183 2.46146 1.08984 3.01345 1.08984 3.69193V5.98513L0.190582 6.73143C0.189105 6.73266 0.187805 6.73407 0.186328 6.73533C0.17441 6.74546 0.162809 6.7559 0.15191 6.76697C0.151102 6.76778 0.150328 6.76863 0.14952 6.76943C0.139359 6.77988 0.129762 6.79085 0.120516 6.80206C0.116965 6.80635 0.113555 6.81074 0.110145 6.81514C0.103781 6.8234 0.0976992 6.83184 0.0918281 6.84042C0.088875 6.84474 0.0857812 6.84896 0.0829687 6.85335C0.0754453 6.86513 0.0684492 6.87722 0.061875 6.8896C0.059168 6.89466 0.0567422 6.89983 0.0542461 6.90496C0.0498867 6.91379 0.0458086 6.92275 0.0419414 6.93182C0.0397969 6.93688 0.0376172 6.94195 0.0356484 6.94708C0.0304453 6.96051 0.0256289 6.97408 0.0215508 6.98797C0.0211641 6.9893 0.0208477 6.99064 0.0204609 6.99201C0.0165586 7.00554 0.0133594 7.01933 0.0105469 7.03321C0.00970313 7.0375 0.00896484 7.04176 0.00822656 7.04604C0.00622266 7.05744 0.00460547 7.06893 0.00333984 7.08053C0.00291797 7.08458 0.00239062 7.08858 0.00203906 7.09263C0.00084375 7.10736 0 7.12223 0 7.13724V7.13882V7.1391V16.0662C0 16.6188 0.233367 17.1176 0.606305 17.4703C0.616887 17.4809 0.627504 17.4914 0.638824 17.5009C0.981844 17.8108 1.43603 17.9998 1.93359 17.9998H16.0664C16.564 17.9998 17.0182 17.8107 17.3613 17.5008C17.3725 17.4913 17.383 17.4809 17.3936 17.4704C17.7666 17.1177 18 16.6188 18 16.0662V7.1391C18 7.13903 18 7.13893 18 7.13882ZM2.32031 3.51615H15.6797C15.7766 3.51615 15.8555 3.595 15.8555 3.69193V7.79403L15.5571 8.04167L9.56131 13.0174C9.23607 13.2873 8.76393 13.2873 8.43869 13.0174L2.44294 8.04171L2.14453 7.79403V3.69193C2.14453 3.595 2.22339 3.51615 2.32031 3.51615ZM1.05469 16.0662V8.26013L1.28152 8.44839C1.28166 8.4485 1.2818 8.44864 1.28194 8.44874L6.43124 12.722L1.10869 16.3696C1.07378 16.275 1.05469 16.1728 1.05469 16.0662ZM7.27513 13.4223L7.76517 13.829C8.48067 14.4228 9.51933 14.4228 10.2348 13.829L10.7249 13.4223L15.8654 16.9451H2.13455L7.27513 13.4223ZM11.5688 12.7221L16.718 8.44874C16.7182 8.44864 16.7183 8.4485 16.7184 8.44839L16.9453 8.26013V16.0662C16.9453 16.1728 16.9262 16.275 16.8913 16.3696L11.5688 12.7221ZM8.43869 1.25711C8.76393 0.987217 9.23607 0.987217 9.56131 1.25711L11.0126 2.46149H6.98741L8.43869 1.25711Z" fill="#7987A1"/>
<path d="M4.62305 5.80061C4.62305 6.09184 4.85916 6.32795 5.15039 6.32795H10.1426C10.4338 6.32795 10.6699 6.09184 10.6699 5.80061C10.6699 5.50937 10.4338 5.27326 10.1426 5.27326H5.15039C4.85916 5.27326 4.62305 5.50937 4.62305 5.80061Z" fill="#7987A1"/>
<path d="M5.15039 8.43732H12.8496C13.0953 8.43732 13.3011 8.26907 13.3597 8.04168C13.3706 7.99949 13.377 7.95554 13.377 7.90998C13.377 7.61875 13.1408 7.38264 12.8496 7.38264H5.15039C4.85916 7.38264 4.62305 7.61875 4.62305 7.90998C4.62305 7.95554 4.62945 7.99952 4.64031 8.04168C4.69888 8.2691 4.90472 8.43732 5.15039 8.43732Z" fill="#7987A1"/>
</g>
<defs>
<clipPath id="clip0">
<rect width="18" height="18" fill="white"/>
</clipPath>
</defs>
</svg>
