<svg width="20" height="20" viewBox="0 0 32 32" fill="none" xmlns="http://www.w3.org/2000/svg">
<g clip-path="url(#clip0_3102_373)">
<path d="M31.1763 8.77604L23.2246 0.824353C22.1258 -0.274459 20.3476 -0.274459 19.2487 0.824353L5.99599 14.0771C4.89723 15.1759 4.89711 16.9541 5.99599 18.0529L13.9477 26.0046C15.0465 27.1034 16.8247 27.1035 17.9236 26.0046L31.1764 12.7519C32.2751 11.6531 32.2752 9.87479 31.1763 8.77604ZM22.1738 2.4241L29.5765 9.82679H22.1738V2.4241ZM14.9985 24.4049L7.59574 17.0022H14.9984V24.4049H14.9985ZM7.59567 15.1342L20.3059 2.42404V14.1909C20.3059 14.7076 19.8792 15.1342 19.3625 15.1342H7.59567V15.1342ZM16.8664 24.4049V17.0022H19.3625C20.9127 17.0022 22.1738 15.741 22.1738 14.1909V11.6948H29.5766L16.8664 24.4049Z" fill="#7987a1"/>
<path d="M7.29869 22.0509C6.93269 21.6849 6.33931 21.6849 5.97338 22.0509L0.2745 27.7498C-0.0915 28.1158 -0.0915 28.7091 0.2745 29.0751C0.640438 29.4411 1.23388 29.4411 1.59975 29.0751L7.29869 23.3761C7.66469 23.0101 7.66469 22.4168 7.29869 22.0509Z" fill="#7987a1"/>
<path d="M4.64813 19.4003C4.28213 19.0342 3.68875 19.0342 3.32288 19.4003L0.2745 22.4487C-0.0915 22.8147 -0.0915 23.408 0.2745 23.7739C0.640438 24.1399 1.23388 24.1399 1.59975 23.7739L4.64813 20.7255C5.01406 20.3596 5.01406 19.7663 4.64813 19.4003Z" fill="#7987a1"/>
<path d="M9.94914 24.7012C9.58314 24.3352 8.98977 24.3353 8.62383 24.7013L2.92489 30.4002C2.55889 30.7662 2.55889 31.3596 2.92489 31.7255C3.29083 32.0915 3.88427 32.0915 4.25014 31.7255L9.94908 26.0266C10.3151 25.6606 10.3151 25.0672 9.94914 24.7012Z" fill="#7987a1"/>
<path d="M12.5993 27.3521C12.2334 26.9861 11.64 26.9861 11.274 27.3521L8.22567 30.4005C7.85967 30.7665 7.85967 31.3598 8.22567 31.7258C8.59161 32.0918 9.18505 32.0918 9.55092 31.7258L12.5993 28.6774C12.9653 28.3114 12.9653 27.7181 12.5993 27.3521Z" fill="#7987a1"/>
</g>
<defs>
<clipPath id="clip0_3102_373">
<rect width="32" height="32" fill="white"/>
</clipPath>
</defs>
</svg>
