<svg width="18" height="18" viewBox="0 0 18 18" fill="none" xmlns="http://www.w3.org/2000/svg">
<path d="M16.418 2.83398H1.58203C0.709699 2.83398 0 3.54368 0 4.41602V13.5841C0 14.4565 0.709699 15.1662 1.58203 15.1662H16.418C17.2903 15.1662 18 14.4565 18 13.5841V4.41602C18 3.54368 17.2903 2.83398 16.418 2.83398ZM16.2115 3.88867L16.0003 4.06449L9.62768 9.37101C9.26395 9.67384 8.73598 9.67384 8.37232 9.37101L1.99965 4.06449L1.7885 3.88867H16.2115ZM1.05469 4.65009L6.24698 8.97371L1.05469 12.4293V4.65009ZM16.418 14.1115H1.58203C1.32722 14.1115 1.1141 13.9298 1.06527 13.6892L7.09263 9.67785L7.69746 10.1815C8.07483 10.4957 8.53745 10.6528 9.00004 10.6528C9.46262 10.6528 9.92521 10.4957 10.3026 10.1815L10.9074 9.67785L16.9348 13.6892C16.8859 13.9298 16.6728 14.1115 16.418 14.1115ZM16.9453 12.4293L11.753 8.97374L16.9453 4.65009V12.4293Z" fill="#7987A1"/>
</svg>
