<svg width="18" height="18" viewBox="0 0 18 18" fill="none" xmlns="http://www.w3.org/2000/svg">
<path d="M6.08203 17.2969C6.08203 17.6852 5.76727 18 5.37891 18H3.76172C2.21086 18 0.949219 16.7384 0.949219 15.1875V2.8125C0.949219 1.26164 2.21086 0 3.76172 0H12.4063C13.957 0 15.2188 1.26164 15.2188 2.8125V6.99609C15.2188 7.38446 14.9039 7.69922 14.5157 7.69922C14.1273 7.69922 13.8126 7.38446 13.8126 6.99609V2.8125C13.8126 2.03714 13.1817 1.40625 12.4063 1.40625H3.76172C2.98636 1.40625 2.35547 2.03714 2.35547 2.8125V15.1875C2.35547 15.9629 2.98636 16.5938 3.76172 16.5938H5.37891C5.76727 16.5938 6.08203 16.9085 6.08203 17.2969ZM12.4062 4.92188C12.4062 4.53351 12.0914 4.21875 11.703 4.21875H4.46086C4.07263 4.21875 3.75774 4.53351 3.75774 4.92188C3.75774 5.31024 4.07263 5.625 4.46086 5.625H11.703C12.0914 5.625 12.4062 5.31024 12.4062 4.92188ZM9.59766 7.73438C9.59766 7.34601 9.2829 7.03125 8.89453 7.03125H4.46086C4.07263 7.03125 3.75774 7.34601 3.75774 7.73438C3.75774 8.12274 4.07263 8.4375 4.46086 8.4375H8.89453C9.2829 8.4375 9.59766 8.12274 9.59766 7.73438ZM4.46086 9.84375C4.07263 9.84375 3.75774 10.1585 3.75774 10.5469C3.75774 10.9352 4.07263 11.25 4.46086 11.25H7.38281C7.77118 11.25 8.08594 10.9352 8.08594 10.5469C8.08594 10.1585 7.77118 9.84375 7.38281 9.84375H4.46086ZM16.7276 17.4769C16.4571 17.8094 16.0579 18 15.6323 18H8.76613C8.33821 18 7.93776 17.8095 7.6675 17.4775C7.39558 17.1433 7.28998 16.7092 7.37773 16.2865C7.60487 15.1923 8.20651 14.1967 9.07168 13.483C9.39935 13.2127 9.75943 12.9878 10.1412 12.812C9.71576 12.3287 9.45703 11.6955 9.45703 11.0027C9.45703 9.49054 10.6871 8.26048 12.1992 8.26048C13.7113 8.26048 14.9414 9.49054 14.9414 11.0027C14.9414 11.6955 14.6827 12.3287 14.2572 12.812C14.639 12.9878 14.9991 13.2126 15.3267 13.483C16.1746 14.1824 16.7693 15.1526 17.0066 16.2209C17.0121 16.2394 17.0167 16.2581 17.0207 16.2772C17.1089 16.7024 17.002 17.1396 16.7276 17.4769ZM10.8633 11.0027C10.8633 11.7393 11.4626 12.3386 12.1992 12.3386C12.9359 12.3386 13.5352 11.7393 13.5352 11.0027C13.5352 10.266 12.9359 9.66673 12.1992 9.66673C11.4626 9.66673 10.8633 10.266 10.8633 11.0027ZM15.6441 16.5738C15.644 16.5734 15.6438 16.5729 15.6438 16.5725C15.3062 14.9464 13.8575 13.766 12.1992 13.766C10.541 13.766 9.09215 14.9464 8.75459 16.5725C8.75143 16.5883 8.76228 16.5933 8.76228 16.5935C8.76256 16.5935 8.76379 16.5938 8.76613 16.5938H15.6323C15.6327 16.5933 15.6422 16.5862 15.6441 16.5738Z" fill="#3499FF"/>
</svg>
