<svg class="svg-icon" style="width: 1em; height: 1em;vertical-align: middle;fill: currentColor;overflow: hidden;" viewBox="0 0 1024 1024" version="1.1" xmlns="http://www.w3.org/2000/svg"><path d="M96 64C43.264 64 0 107.264 0 160v512c0 52.736 43.264 96 96 96H128v32c0 52.736 43.264 96 96 96h640c52.736 0 96-43.264 96-96v-512c0-52.736-43.264-96-96-96H832v-32c0-52.736-43.264-96-96-96z m0 64h640c17.984 0 32 14.016 32 32V192H224C171.264 192 128 235.264 128 288V704h-32a31.616 31.616 0 0 1-32-32v-512c0-17.984 14.016-32 32-32z m128 128h640c2.56 0 4.736 0.768 7.04 1.472L544 504 216.96 257.472A21.888 21.888 0 0 1 224 256z m-32 62.72l352 265.28L896 318.72v481.28c0 17.984-14.016 32-32 32h-640a31.616 31.616 0 0 1-32-32z" fill="" /></svg>