<svg width="20" height="20" viewBox="0 0 20 20" fill="none" xmlns="http://www.w3.org/2000/svg">
<path d="M9.96094 15.6641C9.52942 15.6641 9.17969 15.3143 9.17969 14.8828C9.17969 14.4513 9.52942 14.1016 9.96094 14.1016C10.3925 14.1016 10.7422 14.4513 10.7422 14.8828C10.7422 15.3143 10.3925 15.6641 9.96094 15.6641ZM10.7422 12.1484V11.0994C12.2528 10.7339 13.2994 9.3634 13.2397 7.81357C13.1749 6.12595 11.7903 4.75372 10.0876 4.68994C9.17786 4.65546 8.31879 4.98138 7.66937 5.60684C7.0311 6.22162 6.67969 7.04651 6.67969 7.92969C6.67969 8.36121 7.02942 8.71094 7.46094 8.71094C7.89246 8.71094 8.24219 8.36121 8.24219 7.92969C8.24219 7.47498 8.42361 7.04971 8.7532 6.73233C9.09409 6.40411 9.54681 6.23337 10.029 6.25122C10.9203 6.28479 11.6447 6.99738 11.6785 7.87369C11.7097 8.69034 11.1461 9.41193 10.3378 9.58923C9.65591 9.73892 9.17969 10.3282 9.17969 11.0225V12.1484C9.17969 12.58 9.52942 12.9297 9.96094 12.9297C10.3925 12.9297 10.7422 12.58 10.7422 12.1484ZM15.1743 18.5588C15.5434 18.3353 15.6613 17.8549 15.4378 17.486C15.2141 17.1169 14.7337 16.9989 14.3648 17.2224C13.0525 18.0173 11.5431 18.4375 10 18.4375C5.3476 18.4375 1.5625 14.6524 1.5625 10C1.5625 5.3476 5.3476 1.5625 10 1.5625C14.6524 1.5625 18.4375 5.3476 18.4375 10C18.4375 11.6637 17.9428 13.2829 17.0068 14.6831C16.767 15.0417 16.8634 15.5269 17.222 15.7668C17.5807 16.0066 18.0659 15.9102 18.3057 15.5515C19.4142 13.8936 20 11.9739 20 10C20 7.32895 18.9598 4.81766 17.0711 2.92892C15.1823 1.04019 12.6711 0 10 0C7.32895 0 4.81766 1.04019 2.92892 2.92892C1.04019 4.81766 0 7.32895 0 10C0 12.6711 1.04019 15.1823 2.92892 17.0711C4.81766 18.9598 7.32895 20 10 20C11.8286 20 13.6179 19.5016 15.1743 18.5588Z" fill="#3499FF"/>
</svg>
