<svg width="18" height="18" viewBox="0 0 18 18" fill="none" xmlns="http://www.w3.org/2000/svg">
<path d="M17.985 11.1034C17.9844 11.1003 17.9837 11.0971 17.9831 11.0941C17.9785 11.073 17.9733 11.0519 17.9668 11.0309C17.9651 11.0252 17.963 11.0198 17.9612 11.0142C17.9581 11.005 17.9552 10.9957 17.9518 10.9866L15.7019 4.987C15.5922 4.69431 15.3124 4.50037 14.9997 4.50037H12.7499C12.3357 4.50037 12 4.83612 12 5.2503C12 5.66448 12.3357 6.00023 12.7499 6.00023H14.48L16.1674 10.4999H12.7499C12.3357 10.4999 12 10.8356 12 11.2498V12.7497H6.00041V11.2498C6.00041 10.8356 5.66466 10.4999 5.25048 10.4999H1.83299L3.52036 6.00023H5.25048C5.66466 6.00023 6.00041 5.66448 6.00041 5.2503C6.00041 4.83612 5.66466 4.50037 5.25048 4.50037H3.00065C2.68803 4.50037 2.4082 4.69427 2.29845 4.987L0.0486219 10.9866C0.0451768 10.9957 0.0423294 11.0049 0.039271 11.0141C0.0374079 11.0197 0.0352986 11.0252 0.0335761 11.0309C0.0271078 11.0519 0.0219051 11.073 0.0173351 11.0941C0.0166672 11.0972 0.0160344 11.1003 0.0154017 11.1035C0.00373067 11.1611 -0.000979912 11.2185 0.00088323 11.275V17.2495C0.00088323 17.6637 0.336636 17.9994 0.750816 17.9994H17.2496C17.6638 17.9994 17.9995 17.6637 17.9995 17.2495V11.275C18.0014 11.2185 17.9967 11.1611 17.985 11.1034ZM16.4996 16.4995H1.50075V11.9998H4.50051V13.4997C4.50051 13.9139 4.83627 14.2496 5.25045 14.2496H12.7499C13.1641 14.2496 13.4998 13.9139 13.4998 13.4997V11.9998H16.4996V16.4995H16.4996Z" fill="#7987A1"/>
<path d="M6.22014 8.03044L8.46997 10.2803C8.47011 10.2804 8.47025 10.2805 8.47035 10.2806C8.48772 10.298 8.50593 10.3144 8.52491 10.3299C8.53359 10.3371 8.54273 10.3433 8.55166 10.3499C8.56231 10.3579 8.57275 10.3662 8.58383 10.3736C8.59451 10.3807 8.60559 10.3869 8.61652 10.3935C8.62657 10.3995 8.63638 10.4058 8.64675 10.4113C8.6579 10.4173 8.66936 10.4223 8.68075 10.4277C8.69157 10.4328 8.70219 10.4382 8.71326 10.4428C8.7243 10.4474 8.73559 10.4511 8.74676 10.4551C8.75865 10.4594 8.77039 10.4639 8.78255 10.4676C8.79373 10.471 8.80512 10.4735 8.81644 10.4763C8.82885 10.4795 8.84108 10.4829 8.85374 10.4854C8.86681 10.488 8.88003 10.4895 8.89318 10.4914C8.90422 10.493 8.91504 10.4951 8.92626 10.4962C8.95062 10.4986 8.97505 10.4999 8.99948 10.4999C8.99973 10.4999 9.00001 10.4999 9.00026 10.4999C9.0005 10.4999 9.00078 10.4999 9.00103 10.4999C9.02546 10.4999 9.04989 10.4986 9.07425 10.4962C9.08543 10.4951 9.0963 10.493 9.10733 10.4914C9.12052 10.4895 9.1337 10.488 9.14678 10.4854C9.1594 10.4829 9.17166 10.4795 9.18407 10.4763C9.19539 10.4735 9.20675 10.471 9.21796 10.4676C9.23013 10.4639 9.24187 10.4594 9.25375 10.4551C9.26493 10.4511 9.27621 10.4474 9.28725 10.4428C9.29832 10.4382 9.30898 10.4328 9.31977 10.4277C9.33116 10.4223 9.34262 10.4173 9.35376 10.4113C9.3641 10.4058 9.37394 10.3995 9.38399 10.3935C9.39493 10.3869 9.406 10.3807 9.41669 10.3736C9.42776 10.3662 9.4382 10.3579 9.44885 10.3499C9.45778 10.3433 9.46692 10.3371 9.4756 10.3299C9.49459 10.3144 9.51283 10.298 9.53016 10.2806C9.5303 10.2805 9.53044 10.2804 9.53055 10.2803L11.7804 8.03044C12.0732 7.73758 12.0732 7.26272 11.7804 6.96986C11.4875 6.67699 11.0127 6.67699 10.7198 6.96986L9.75019 7.93946V0.750664C9.75019 0.336484 9.41444 0.000732422 9.00026 0.000732422C8.58608 0.000732422 8.25033 0.336484 8.25033 0.750664V7.93946L7.28072 6.96986C6.98786 6.67699 6.513 6.67699 6.22014 6.96986C5.92727 7.26272 5.92727 7.73754 6.22014 8.03044Z" fill="#7987A1"/>
</svg>
