<svg width="18" height="16" viewBox="0 0 18 16" fill="none" xmlns="http://www.w3.org/2000/svg">
<path d="M16.9179 6.73678C16.8442 6.72483 16.7697 6.71931 16.6951 6.72028H3.99645L4.27335 6.59149C4.54401 6.46339 4.79024 6.28904 5.00101 6.07633L8.56202 2.51532C9.03102 2.06761 9.10982 1.3474 8.74877 0.808863C8.32855 0.234987 7.5227 0.110384 6.94878 0.530598C6.90242 0.564566 6.85835 0.601593 6.81693 0.641437L0.37748 7.08089C-0.125763 7.58357 -0.126206 8.399 0.376474 8.90225C0.376796 8.90257 0.377158 8.90293 0.37748 8.90325L6.81693 15.3427C7.32058 15.8449 8.13601 15.8438 8.63829 15.3402C8.67781 15.3005 8.71472 15.2583 8.74877 15.2139C9.10982 14.6754 9.03102 13.9552 8.56202 13.5075L5.00745 9.94001C4.81849 9.75085 4.60124 9.59224 4.3635 9.46993L3.97713 9.29606H16.6242C17.2821 9.32049 17.8593 8.86091 17.9829 8.21423C18.0968 7.51213 17.62 6.85068 16.9179 6.73678Z" fill="#646464"/>
</svg>
