<svg width="22" height="23" viewBox="0 0 22 23" fill="none" xmlns="http://www.w3.org/2000/svg">
<path fill-rule="evenodd" clip-rule="evenodd" d="M16.875 3.67386H17.2723C18.7764 3.67386 20 4.89304 20 6.3916V11.0567C20 11.4882 19.6503 11.8379 19.2188 11.8379C18.7872 11.8379 18.4375 11.4882 18.4375 11.0567V7.15942L13.0014 10.5223C12.5577 10.7968 12.0601 10.934 11.5625 10.934C11.0649 10.934 10.5673 10.7968 10.1236 10.5223L4.6875 7.15942V13.8469C4.6875 14.4838 5.21027 15.002 5.85266 15.002H8.86719C9.29871 15.002 9.64844 15.3517 9.64844 15.7832C9.64844 16.2148 9.29871 16.5645 8.86719 16.5645H5.85266C4.3486 16.5645 3.125 15.3453 3.125 13.8469V13.0098C1.40182 13.0098 0 11.608 0 9.8848V3.67188C0 1.9487 1.40182 0.546875 3.125 0.546875H13.75C15.4732 0.546875 16.875 1.9487 16.875 3.67188V3.67386ZM1.5625 3.67188V9.8848C1.5625 10.7463 2.26349 11.4473 3.125 11.4473V6.3916C3.125 4.89304 4.3486 3.67386 5.85266 3.67386H15.3125V3.67188C15.3125 2.81036 14.6115 2.10938 13.75 2.10938H3.125C2.26349 2.10938 1.5625 2.81036 1.5625 3.67188ZM10.9456 9.19342C11.3203 9.4252 11.8047 9.4252 12.1794 9.19342L18.0692 5.54993C17.8607 5.35568 17.5803 5.23636 17.2723 5.23636H5.85266C5.54474 5.23636 5.26443 5.35568 5.05585 5.54993L10.9456 9.19342Z" fill="#3499FF"/>
<path fill-rule="evenodd" clip-rule="evenodd" d="M11.6839 13.5562C10.774 14.4719 10.774 15.9617 11.6839 16.8774L13.4145 18.6189C13.7186 18.9251 14.2133 18.9267 14.5194 18.6224C14.8255 18.3183 14.827 17.8238 14.5229 17.5177L13.0129 15.998H18V14.4355H13.0129L14.5229 12.9159C14.827 12.6098 14.8255 12.1151 14.5194 11.811C14.367 11.6597 14.1679 11.584 13.9687 11.584C13.7679 11.584 13.5673 11.6609 13.4145 11.8145L11.6839 13.5562Z" fill="#3499FF"/>
<g clip-path="url(#clip0)">
<path d="M14.3431 18.111L11.8957 15.6551C11.7434 15.5028 11.7434 15.255 11.8951 15.1033L14.342 12.6675C14.4949 12.5153 14.4954 12.2679 14.3432 12.115C14.191 11.9621 13.9437 11.9616 13.7908 12.1138L11.3432 14.5503C10.8863 15.0072 10.8863 15.7506 11.3428 16.2071L13.7897 18.6625C13.866 18.739 13.9662 18.7773 14.0664 18.7773C14.1661 18.7773 14.2659 18.7394 14.3422 18.6634C14.495 18.5111 14.4954 18.2638 14.3431 18.111Z" fill="#3499FF" stroke="#3499FF" stroke-width="0.1"/>
</g>
<path d="M17.4941 14.9883H13.3242C13.1085 14.9883 12.9336 15.1632 12.9336 15.3789C12.9336 15.5946 13.1085 15.7695 13.3242 15.7695H17.4941C18.9965 15.7695 20.2188 16.9918 20.2188 18.4941C20.2188 19.9965 18.9965 21.2188 17.4941 21.2188C17.2784 21.2188 17.1035 21.3936 17.1035 21.6094C17.1035 21.8251 17.2784 22 17.4941 22C19.4273 22 21 20.4273 21 18.4941C21 16.561 19.4273 14.9883 17.4941 14.9883Z" fill="#3499FF" stroke="#3499FF"/>
<defs>
<clipPath id="clip0">
<rect width="10" height="10" fill="white" transform="translate(11 12)"/>
</clipPath>
</defs>
</svg>
