<svg width="20" height="20" viewBox="0 0 18 18" fill="none" xmlns="http://www.w3.org/2000/svg">
<path d="M8.45501 1.13215C5.68118 1.2552 3.06204 2.58059 1.5011 4.64777C0.769852 5.61457 0.316337 6.65168 0.0983678 7.83996C0.0104772 8.31809 -0.00710091 9.46067 0.0667272 9.93176C0.130008 10.3642 0.274149 10.9372 0.407743 11.331C0.667899 12.0833 1.20579 13.0255 1.71907 13.6302C1.96165 13.915 1.96868 13.9466 1.88431 14.3896C1.76126 15.0294 1.48352 15.5005 0.885868 16.0876C0.664384 16.3056 0.499149 16.4884 0.516727 16.4954C0.580009 16.5341 1.43431 16.8048 1.59602 16.84C1.84212 16.8927 2.50306 16.8857 2.81595 16.8259C3.35384 16.7239 4.02532 16.4462 4.51751 16.1263C4.76009 15.9681 4.76009 15.9681 4.88665 16.0208C5.94485 16.4743 6.89759 16.7275 7.99798 16.84C8.51478 16.8927 9.65032 16.8857 10.1742 16.8224C12.5613 16.5411 14.7234 15.4372 16.1577 13.7708C17.0859 12.6915 17.6519 11.5173 17.9015 10.1603C18.007 9.5802 18.007 8.42004 17.9015 7.83996C17.4937 5.6216 16.1577 3.75481 14.073 2.48918C12.4347 1.49426 10.5433 1.03723 8.45501 1.13215ZM10.1249 2.09192C11.7949 2.29934 13.4226 2.99192 14.646 4.02199C17.8874 6.7466 17.8909 11.2536 14.6495 13.9747C13.412 15.0154 11.7913 15.7044 10.0898 15.9118C9.50267 15.9821 8.1597 15.9646 7.61126 15.8767C6.70423 15.729 5.98001 15.5075 5.07649 15.0962L4.64759 14.8993L4.40149 15.0927C3.76868 15.5814 2.8722 15.9611 2.35891 15.9611H2.21477L2.32024 15.7888C2.64017 15.2685 2.80891 14.6884 2.83704 14.0029L2.85813 13.5388L2.61204 13.2646C0.67493 11.1025 0.376102 8.1177 1.8597 5.73059C3.06907 3.78645 5.32259 2.41535 7.83978 2.09543C8.3636 2.02863 9.58704 2.02512 10.1249 2.09192Z" fill="#7987A1"/>
<path d="M4.398 6.97871C3.78628 7.15098 3.48745 7.53418 3.52261 8.1002C3.56128 8.69082 3.81792 8.92989 4.92534 9.41153C5.36127 9.60137 5.52651 9.96348 5.30502 10.2447C5.14331 10.4522 4.4226 10.5119 3.88472 10.3678C3.73003 10.3256 3.57886 10.2904 3.55073 10.2869C3.47339 10.2799 3.39604 10.4697 3.38198 10.7088L3.36792 10.9268L3.55425 10.9971C3.65972 11.0357 3.86714 11.085 4.01479 11.1096C4.36284 11.1658 5.15385 11.1377 5.39291 11.0604C5.77612 10.9373 6.0644 10.6842 6.16635 10.3783C6.28237 10.0408 6.21557 9.53106 6.02221 9.2709C5.87104 9.07403 5.53705 8.842 5.16792 8.68028C4.41909 8.35684 4.32065 8.2795 4.31714 8.01582C4.31362 7.73106 4.50346 7.59747 4.95698 7.56934C5.13979 7.55879 5.31909 7.57637 5.53705 7.62559C5.85346 7.69239 5.85346 7.69239 5.91323 7.62207C5.99057 7.53418 6.05385 7.30567 6.03979 7.16153C6.02221 6.98926 5.86752 6.95059 5.16792 6.93653C4.73198 6.9295 4.54214 6.94004 4.398 6.97871Z" fill="#7987A1"/>
<path d="M12.3152 6.97852C11.925 7.0875 11.6719 7.27031 11.5312 7.54805C11.4574 7.68867 11.4434 7.76602 11.4434 8.01562C11.4469 8.60273 11.6754 8.88398 12.4312 9.225C13.2047 9.57656 13.3559 9.71367 13.3137 10.0266C13.275 10.3184 13.0008 10.4484 12.4312 10.4449C12.0832 10.4449 12.027 10.4379 11.6789 10.3324C11.5559 10.2973 11.4398 10.2727 11.4258 10.2832C11.373 10.3148 11.2852 10.6277 11.2852 10.7789C11.2852 10.9195 11.2922 10.9301 11.4363 10.9863C11.6859 11.0883 12.0797 11.1445 12.5086 11.1445C13.3172 11.141 13.7602 10.9582 14.0203 10.5152C14.1082 10.3676 14.1152 10.3254 14.1152 9.9668C14.1152 9.6293 14.1047 9.5625 14.0309 9.42539C13.8973 9.17227 13.6371 8.94727 13.2785 8.775C13.0992 8.69062 12.818 8.55703 12.6492 8.47617C12.3047 8.31094 12.2344 8.22656 12.2344 7.98047C12.2344 7.77656 12.3645 7.65 12.6422 7.59375C12.8777 7.54453 13.2715 7.56562 13.5703 7.64648C13.7391 7.69219 13.7672 7.69219 13.8199 7.64297C13.8902 7.57969 13.957 7.36172 13.957 7.19297C13.957 7.07695 13.943 7.05586 13.827 7.00664C13.6371 6.92227 12.5754 6.90469 12.3152 6.97852Z" fill="#7987A1"/>
<path d="M7.05585 7.0207C7.00311 7.02773 6.94335 7.06641 6.92577 7.10156C6.90116 7.14727 6.89061 7.83281 6.89765 9.10547C6.90819 10.7824 6.91522 11.0461 6.96093 11.0742C6.98905 11.0953 7.15429 11.1059 7.33007 11.1023C7.63241 11.0918 7.64296 11.0883 7.66756 11.0039C7.68163 10.9547 7.69217 10.3219 7.69569 9.60117L7.69921 8.28281L8.08944 8.95078C8.30389 9.31641 8.50428 9.64336 8.53592 9.675C8.60623 9.75937 8.83123 9.75937 8.90154 9.675C8.92967 9.64336 9.14412 9.30586 9.37264 8.92969L9.79099 8.24414L9.80154 9.6293C9.80506 10.582 9.82263 11.0285 9.84724 11.0637C9.87537 11.0953 9.98084 11.1094 10.1988 11.1094C10.473 11.1094 10.5152 11.1023 10.5469 11.0391C10.6066 10.9301 10.5785 7.11914 10.5187 7.05937C10.4554 6.99609 9.91052 6.99609 9.83318 7.06289C9.80154 7.0875 9.55193 7.46367 9.27771 7.89609C9.0035 8.33203 8.76795 8.69414 8.75389 8.70117C8.73983 8.71172 8.49373 8.34609 8.20897 7.89258C7.72733 7.12617 7.68514 7.06641 7.56561 7.03125C7.43553 6.99609 7.24569 6.99258 7.05585 7.0207Z" fill="#7987A1"/>
</svg>
