<svg width="18" height="18" viewBox="0 0 32 32" fill="none" xmlns="http://www.w3.org/2000/svg">
<path d="M9.01215 1.3749C8.6559 1.45615 8.33715 1.71865 8.16215 2.06865C7.99965 2.3999 7.99965 2.4124 7.99965 3.8499V5.2999L6.48715 5.3249L4.9684 5.34365L4.67465 5.51865C3.9184 5.9624 3.7809 6.9749 4.3934 7.5874C4.77465 7.96865 4.9559 7.9999 6.58715 7.9999H7.99965V9.41865C7.99965 10.2374 8.0309 10.9437 8.0684 11.0874C8.16215 11.4249 8.58715 11.8312 8.9559 11.9312C9.54965 12.0999 10.1747 11.8499 10.4809 11.3249L10.6559 11.0312L10.6747 9.5124L10.6997 7.9999H12.1497C13.5872 7.9999 13.5997 7.9999 13.9309 7.8374C14.7247 7.4374 14.8997 6.46865 14.2997 5.7874C13.9309 5.3624 13.6997 5.3124 12.0497 5.3124H10.6872V3.9624C10.6872 3.18115 10.6559 2.4999 10.6184 2.34365C10.5122 1.93115 10.1309 1.5249 9.7309 1.40615C9.38715 1.30615 9.3184 1.2999 9.01215 1.3749Z" fill="#3499FF"/>
<path d="M20.8867 12.0687C20.5992 12.1562 20.1492 12.6187 20.0679 12.9125C20.0304 13.05 19.9992 13.5 19.9992 13.9187V14.6875H14.4992C9.20542 14.6875 8.98667 14.6937 8.76167 14.8062C8.63667 14.875 8.45542 15.0062 8.36167 15.1062C7.98042 15.5 7.99917 15.225 7.99917 21.2937C7.99917 25.0437 8.02417 26.925 8.06792 27.0875C8.15542 27.4 8.58042 27.825 8.91167 27.925C9.10542 27.9812 10.4804 28 14.5867 28H19.9992V28.8062C19.9992 29.5625 20.0117 29.6312 20.1742 29.9437C20.2992 30.1875 20.4304 30.3312 20.6554 30.4687L20.9554 30.6562H23.9992H27.0429L27.3429 30.4687C27.5679 30.3312 27.6992 30.1875 27.8242 29.9437L27.9992 29.6125V26.6812C27.9992 24.1687 27.9867 23.7125 27.8992 23.5125C27.7804 23.2187 27.5367 22.9625 27.2367 22.8062C27.0179 22.6937 26.8304 22.6875 23.9992 22.6875C21.1679 22.6875 20.9804 22.6937 20.7617 22.8062C20.6367 22.875 20.4554 23.0062 20.3617 23.1062C20.0617 23.4187 19.9992 23.6687 19.9992 24.5312V25.3125H15.3429H10.6867V21.3125V17.3125H15.3429H19.9992V18.075C19.9992 18.5 20.0304 18.95 20.0679 19.0875C20.1554 19.4 20.5804 19.825 20.9117 19.925C21.2804 20.0312 26.7179 20.0312 27.0867 19.925C27.4179 19.825 27.8242 19.4187 27.9242 19.0875C28.0304 18.7187 28.0304 13.2812 27.9242 12.9125C27.8242 12.5812 27.4179 12.175 27.0867 12.075C26.7679 11.9812 21.2117 11.975 20.8867 12.0687ZM25.3117 16V17.3125H23.9992H22.6867V16V14.6875H23.9992H25.3117V16ZM25.3117 26.6562V28H23.9992H22.6867V26.6562V25.3125H23.9992H25.3117V26.6562Z" fill="#3499FF"/>
</svg>
