<svg width="60" height="60" viewBox="0 0 124 125" fill="none" xmlns="http://www.w3.org/2000/svg">
<g clip-path="url(#clip0_47_6678)">
<path d="M107.271 39.5344H51.3502C49.4868 39.5341 47.7065 38.763 46.432 37.4037L39.2249 29.7198C37.9482 28.3593 36.1652 27.5884 34.2994 27.5906H10.8234C7.09907 27.5906 4.07983 30.6098 4.07983 34.3341V109.542C4.07983 113.271 7.10228 116.293 10.8308 116.293H107.258C110.986 116.293 114.009 113.271 114.009 109.542V46.2782C114.009 42.5558 110.993 39.5376 107.271 39.5344Z" fill="#AEB8C2"/>
<path d="M20.2207 3.09584H102.175V76.4757H20.2207V3.09584Z" fill="#DCE0E6"/>
<path d="M15.9189 9.90913H95.3782V80.795H15.9189V9.90913Z" fill="#F5F5F7"/>
<path d="M24.9036 18.9229H86.3963V22.1493H24.9036V18.9229Z" fill="#DCE0E6"/>
<path d="M24.9036 29.172H86.3963V32.3984H24.9036V29.172Z" fill="#DCE0E6"/>
<path d="M24.9036 39.4211H86.3963V42.6475H24.9036V39.4211Z" fill="#DCE0E6"/>
<path d="M112.43 50.3531H51.3431C49.4844 50.3531 47.7081 51.1203 46.4336 52.4734L39.2235 60.1282C37.9492 61.4813 36.1729 62.2485 34.314 62.2485H6.74378C3.01948 62.2488 0.000246609 65.2678 0 68.9921C0 69.197 0.00937115 69.4017 0.0278669 69.6056L3.51591 110.154C3.83305 113.631 6.74822 116.292 10.2392 116.292H107.846C111.338 116.292 114.253 113.63 114.57 110.153L119.142 57.7114C119.481 54.0026 116.75 50.7208 113.041 50.3812C112.838 50.3627 112.634 50.3533 112.43 50.3531V50.3531Z" fill="#DCE0E6"/>
</g>
<g clip-path="url(#clip1_47_6678)">
<path d="M124 109.618C124 101.613 117.511 95.124 109.506 95.124C101.502 95.124 95.0126 101.613 95.0126 109.618C95.0126 117.622 101.502 124.111 109.506 124.111C117.511 124.111 124 117.622 124 109.618Z" fill="#AEB8C2"/>
<path d="M111.198 109.618L115.436 104.699C115.898 104.162 115.838 103.353 115.301 102.89C114.765 102.429 113.955 102.489 113.493 103.025L109.506 107.653L105.52 103.025C105.058 102.488 104.248 102.428 103.712 102.89C103.175 103.353 103.115 104.162 103.577 104.699L107.814 109.618L103.577 114.537C103.115 115.073 103.175 115.883 103.712 116.345C103.954 116.553 104.251 116.656 104.548 116.656C104.908 116.656 105.266 116.504 105.52 116.21L109.506 111.582L113.493 116.21C113.746 116.505 114.105 116.656 114.465 116.656C114.761 116.656 115.059 116.553 115.301 116.345C115.838 115.883 115.898 115.073 115.436 114.537L111.198 109.618Z" fill="white"/>
</g>
<defs>
<clipPath id="clip0_47_6678">
<rect width="119.171" height="119.171" fill="white" transform="translate(0 0.109406)"/>
</clipPath>
<clipPath id="clip1_47_6678">
<rect width="28.9874" height="28.9874" fill="white" transform="translate(95.0126 95.1239)"/>
</clipPath>
</defs>
</svg>
