<svg width="18" height="18" viewBox="0 0 18 18" fill="none" xmlns="http://www.w3.org/2000/svg">
<path d="M17.5396 7.9411C17.8285 7.90405 18.0326 7.63981 17.9956 7.35094C17.6653 4.77709 16.4988 2.86952 15.5783 1.72252C15.396 1.49538 15.0642 1.45899 14.8369 1.64128C14.6098 1.82356 14.5734 2.15547 14.7557 2.38261C15.5914 3.42404 16.6505 5.15463 16.9494 7.48513C16.9865 7.774 17.2507 7.97812 17.5396 7.9411Z" fill="#000000"/>
<path d="M0.460498 7.94109C0.750008 7.97814 1.01368 7.7735 1.05066 7.48515C1.34967 5.15462 2.40867 3.42403 3.2444 2.3826C3.42672 2.15546 3.39033 1.82355 3.16319 1.64127C2.93601 1.45898 2.6041 1.4954 2.42185 1.72251C1.50136 2.86951 0.33478 4.77708 0.00459482 7.35092C-0.0324948 7.6398 0.171656 7.904 0.460498 7.94109Z" fill="#000000"/>
<path d="M15.4234 7.93898C15.7112 7.89398 15.9079 7.62426 15.863 7.33651C15.5675 5.44689 14.6832 3.99941 13.9935 3.11783C13.814 2.88843 13.4826 2.84797 13.2532 3.02748C13.0238 3.20695 12.9833 3.5384 13.1628 3.76776C13.7755 4.55076 14.5605 5.83382 14.8209 7.49942C14.866 7.78802 15.1366 7.98394 15.4234 7.93898Z" fill="#000000"/>
<path d="M4.74674 3.02754C4.51734 2.848 4.18585 2.88853 4.00645 3.11789C3.31669 3.99947 2.43244 5.44696 2.13695 7.33657C2.09199 7.62433 2.28876 7.89404 2.57651 7.93904C2.86282 7.9839 3.13381 7.78851 3.17902 7.49949C3.43942 5.83389 4.22442 4.55083 4.83709 3.76783C5.01659 3.53847 4.97613 3.20701 4.74674 3.02754Z" fill="#000000"/>
<path d="M9.00009 17.4375C9.87241 17.4375 10.5821 16.7278 10.5821 15.8555V15.3281H14.3087C14.5999 15.3281 14.836 15.0919 14.836 14.8007C14.836 14.0185 14.6598 13.2695 14.3124 12.5745L14.3087 12.5669C13.9637 11.877 13.7813 11.1045 13.7813 10.3331C13.7813 10.3331 13.7813 9.00005 13.7813 9.00001C13.7813 6.14 12.3402 3.7175 10.3687 2.93654C10.5041 2.70346 10.5821 2.433 10.5821 2.14458C10.5821 1.27226 9.87241 0.562561 9.00009 0.562561C8.12776 0.562561 7.41807 1.27226 7.41807 2.14458C7.41807 2.43304 7.49604 2.70346 7.63146 2.93654C5.65998 3.7175 4.21887 6.14 4.21887 8.99998V10.333C4.21887 11.1045 4.03651 11.8769 3.69103 12.5678L3.68808 12.5738C3.34534 13.2592 3.16418 14.0292 3.16418 14.8007C3.16418 15.092 3.40029 15.3281 3.69153 15.3281H7.41807V15.8554C7.41807 16.7278 8.12773 17.4375 9.00009 17.4375ZM9.52743 15.8555C9.52743 16.1463 9.29086 16.3828 9.00009 16.3828C8.70931 16.3828 8.47275 16.1463 8.47275 15.8555V15.3281H9.52743V15.8555ZM8.47275 2.14462C8.47275 1.85384 8.70931 1.61728 9.00009 1.61728C9.29086 1.61728 9.52743 1.85384 9.52743 2.14462C9.52743 2.43539 9.29086 2.67196 9.00009 2.67196C8.70931 2.67196 8.47275 2.43539 8.47275 2.14462ZM4.63188 13.0446L4.63483 13.0386C5.06314 12.1821 5.27355 11.2134 5.27355 10.4239V9.00005C5.27355 6.61193 6.64266 3.72664 9.00009 3.72664C11.3634 3.72664 12.7266 6.62178 12.7266 9.00005V10.4239C12.7266 11.2152 12.9378 12.1836 13.3646 13.0372C13.3646 13.0372 13.3685 13.0451 13.3688 13.0455C13.5635 13.435 13.6899 13.8462 13.7467 14.2735H4.25444C4.31231 13.8459 4.43989 13.4285 4.63188 13.0446Z" fill="#000000"/>
</svg>
