<svg width="34" height="34" viewBox="0 0 34 34" fill="none" xmlns="http://www.w3.org/2000/svg">
<g clip-path="url(#clip0)">
<path d="M24.1899 3.43811C24.1675 3.43811 24.1563 3.43811 24.1339 3.43811C23.1372 3.43811 22.1909 3.82451 21.4854 4.53C20.7631 5.24676 20.3599 6.20422 20.3599 7.22336C20.3599 7.7441 20.7799 8.16965 21.3062 8.16965C21.8325 8.16965 22.2524 7.74973 22.2524 7.22336C22.2524 6.71379 22.454 6.23229 22.8124 5.87949C23.1708 5.5267 23.658 5.32515 24.1619 5.33632C25.1586 5.34749 26.0097 6.19868 26.021 7.19538C26.0266 7.86735 25.7018 8.47203 25.1306 8.83045C23.9099 9.58635 23.1876 10.8518 23.1876 12.2126C23.1876 12.7333 23.6077 13.1589 24.1339 13.1589C24.6547 13.1589 25.0802 12.7389 25.0802 12.2126C25.0802 11.507 25.4778 10.8463 26.133 10.4375C27.2696 9.72641 27.936 8.51135 27.9136 7.17866C27.8799 5.14031 26.2169 3.47172 24.1899 3.43811Z" fill="#7987A1"/>
<path d="M24.1338 14.0491C23.6131 14.0491 23.1875 14.469 23.1875 14.9954V15.3593C23.1875 15.8801 23.6075 16.3056 24.1338 16.3056C24.6545 16.3056 25.0801 15.8856 25.0801 15.3593V14.9954C25.0802 14.469 24.6545 14.0491 24.1338 14.0491Z" fill="#7987A1"/>
<line x1="31.6401" y1="5.00712" x2="16.8663" y2="14.1067" stroke="#7987A1" stroke-width="1.5"/>
<circle cx="24.3393" cy="9.7011" r="8.9511" stroke="#7987A1" stroke-width="1.5"/>
</g>
<defs>
<clipPath id="clip0">
<rect width="34" height="34" fill="white"/>
</clipPath>
</defs>
</svg>
