<svg width="180" height="180" viewBox="0 0 180 180" fill="none" xmlns="http://www.w3.org/2000/svg">
<g clip-path="url(#clip0)">
<path d="M179.886 175.342L175.386 157.342C173.251 148.61 166.778 141.588 158.249 138.75L125.249 127.755C117.201 124.402 113.519 111.442 112.723 106.522C118.855 101.423 122.801 94.1685 123.748 86.2499C123.613 84.8974 123.932 83.5383 124.656 82.3873C125.825 82.0944 126.782 81.257 127.228 80.1373C129.388 74.9088 130.743 69.3837 131.248 63.7499C131.249 63.4437 131.212 63.1389 131.136 62.8425C130.599 60.6533 129.312 58.7215 127.498 57.3824V37.4998C127.498 25.4173 123.808 20.4599 119.923 17.5873C119.181 11.7675 112.949 0 89.9988 0C69.6374 0.819844 53.3185 17.1387 52.4987 37.5001V57.3827C50.6853 58.7218 49.3983 60.6537 48.8611 62.8428C48.7851 63.1392 48.7475 63.4444 48.7486 63.7502C49.2534 69.3868 50.6087 74.9144 52.7687 80.1453C53.0935 81.2053 53.9454 82.0206 55.0187 82.298C55.4388 82.5078 56.2263 83.5956 56.2263 86.2506C57.1794 94.1917 61.1478 101.463 67.3114 106.561C66.5239 111.473 62.8638 124.426 55.0415 127.696L21.7489 138.75C13.226 141.588 6.75724 148.603 4.61904 157.328L0.119039 175.328C-0.390375 177.335 0.823922 179.376 2.83134 179.885C3.13123 179.962 3.43955 180 3.74892 180.001H176.249C178.32 180 179.998 178.321 179.998 176.25C179.998 175.943 179.96 175.639 179.886 175.342Z" fill="#455A64" fill-opacity="0.1"/>
</g>
<defs>
<clipPath id="clip0">
<rect width="180" height="180" fill="white"/>
</clipPath>
</defs>
</svg>
