<svg width="18" height="18" viewBox="0 0 18 18" fill="none" xmlns="http://www.w3.org/2000/svg">
<path d="M8.8613 15.9398C8.7173 15.9398 8.5733 15.885 8.4638 15.7748L2.2253 9.53552C2.11955 9.42977 2.0603 9.28652 2.0603 9.13802C2.0603 8.98877 2.11955 8.84552 2.2253 8.74052L3.5258 7.44002C4.29155 6.67352 5.6288 6.67352 6.39605 7.44002L10.5601 11.6033C11.3513 12.3945 11.3513 13.6823 10.5601 14.4743L9.25955 15.7748C9.1493 15.885 9.00605 15.9398 8.8613 15.9398ZM3.41855 9.13802L8.86205 14.5815L9.76505 13.6785C10.1176 13.326 10.1176 12.7515 9.76505 12.3983L5.60105 8.23502C5.2583 7.89302 4.6628 7.89302 4.32155 8.23502L3.41855 9.13802Z" fill="#7A848E"/>
<path d="M15.8775 8.61898C15.546 8.61898 15.2138 8.49298 14.961 8.24023L9.75977 3.03898C9.51452 2.79448 9.37952 2.46898 9.37952 2.12248C9.37952 1.77598 9.51452 1.45048 9.75977 1.20523L10.8008 0.16498C11.0205 -0.0547697 11.3768 -0.0547697 11.5965 0.16498L17.835 6.40348C18.0548 6.62323 18.0548 6.97948 17.835 7.19923L16.794 8.24023C16.542 8.49298 16.2098 8.61898 15.8775 8.61898ZM11.199 1.35823L10.5563 2.00098C10.5143 2.04298 10.506 2.09023 10.506 2.12248C10.506 2.15473 10.515 2.20198 10.5563 2.24323L15.7575 7.44523C15.8258 7.51273 15.933 7.51123 15.9998 7.44523L16.6425 6.80173L11.199 1.35823Z" fill="#7A848E"/>
<path d="M10.1602 12.5617C10.0162 12.5617 9.87223 12.507 9.76273 12.3967L5.60323 8.23799C5.49748 8.13224 5.43823 7.98899 5.43823 7.84049C5.43823 7.69199 5.49748 7.54799 5.60323 7.44299L10.281 2.76449C10.4917 2.55374 10.8652 2.55374 11.0767 2.76449L15.2362 6.92399C15.456 7.14374 15.456 7.49999 15.2362 7.71974L10.5585 12.3975C10.4482 12.507 10.3042 12.5617 10.1602 12.5617ZM6.79648 7.84049L10.1602 11.2042L14.043 7.32149L10.6792 3.95774L6.79648 7.84049Z" fill="#7A848E"/>
<path d="M0.562435 18C0.418435 18 0.274435 17.9452 0.164935 17.835C-0.0548154 17.6152 -0.0548154 17.259 0.164935 17.0392L5.34443 11.859C5.56418 11.6392 5.92043 11.6392 6.14018 11.859C6.35993 12.0787 6.35993 12.435 6.14018 12.6547L0.959935 17.835C0.850435 17.9452 0.706435 18 0.562435 18Z" fill="#7A848E"/>
</svg>
