<svg width="24" height="25" viewBox="0 0 24 25" fill="none" xmlns="http://www.w3.org/2000/svg">
<g clip-path="url(#clip0)">
<path d="M21.2138 3.42124C19.416 1.62345 17.0257 0.633331 14.4832 0.633331C11.9407 0.633331 9.55042 1.62345 7.75268 3.42124C5.95485 5.21902 4.96478 7.60928 4.96478 10.1518C4.96478 11.8892 5.42745 13.5555 6.29399 15.0103L0.691457 20.6127C-0.22675 21.531 -0.22675 23.0252 0.691504 23.9435C1.13636 24.3883 1.72776 24.6333 2.35685 24.6333C2.98599 24.6333 3.57739 24.3883 4.02219 23.9435L9.62468 18.341C11.0795 19.2076 12.7457 19.6703 14.4832 19.6703C17.0257 19.6703 19.416 18.6801 21.2137 16.8823C24.925 13.1711 24.925 7.13246 21.2138 3.42124ZM3.02776 22.949C2.84858 23.1282 2.61033 23.2269 2.35685 23.2269C2.10346 23.2269 1.86516 23.1282 1.68599 22.949C1.31605 22.5791 1.31605 21.9772 1.68594 21.6072L4.97059 18.3225L6.31237 19.6643L3.02776 22.949ZM7.30689 18.6699L5.96512 17.3281L7.11459 16.1786C7.31435 16.4219 7.52714 16.6568 7.75268 16.8823C7.97823 17.1079 8.2131 17.3206 8.45636 17.5204L7.30689 18.6699ZM20.2193 15.8879C18.6871 17.42 16.65 18.2638 14.4833 18.2638C12.3164 18.2638 10.2793 17.42 8.74721 15.8879C7.21506 14.3557 6.37125 12.3186 6.37125 10.1518C6.37125 7.98503 7.21506 5.94792 8.74721 4.41577C10.2793 2.88356 12.3164 2.03975 14.4832 2.03975C16.65 2.03975 18.6871 2.88356 20.2193 4.41572C23.3822 7.57858 23.3822 12.725 20.2193 15.8879Z" fill="#343434"/>
<path d="M19.2926 5.34237C18.008 4.05774 16.3 3.35022 14.4832 3.35022C12.6664 3.35022 10.9584 4.0577 9.67379 5.34237C8.38917 6.62705 7.68164 8.33501 7.68164 10.1518C7.68164 11.9686 8.38917 13.6766 9.67379 14.9612C10.9584 16.2459 12.6664 16.9534 14.4832 16.9534C16.3 16.9534 18.008 16.2459 19.2926 14.9612C20.5773 13.6766 21.2848 11.9686 21.2848 10.1518C21.2848 8.33505 20.5773 6.62705 19.2926 5.34237ZM18.2982 13.9668C17.2792 14.9858 15.9243 15.547 14.4832 15.547C13.0421 15.547 11.6873 14.9858 10.6683 13.9668C9.64927 12.9478 9.08806 11.5929 9.08806 10.1519C9.08806 8.71076 9.64927 7.3559 10.6683 6.3369C11.6873 5.3179 13.0421 4.75669 14.4832 4.75669C15.9243 4.75669 17.2792 5.3179 18.2982 6.3369C19.3172 7.3559 19.8784 8.71076 19.8784 10.1519C19.8784 11.5929 19.3172 12.9477 18.2982 13.9668Z" fill="#343434"/>
<path d="M10.9988 12.639L11.9932 11.6446L12.9875 12.639L11.9931 13.6334L10.9988 12.639Z" fill="#343434"/>
<path d="M13.9293 7.19474L14.9237 8.18927C15.3433 7.76969 16.0261 7.76969 16.4457 8.18927C16.649 8.3925 16.761 8.66281 16.761 8.95024C16.761 9.23771 16.649 9.50798 16.4457 9.71125C16.0261 10.1308 15.3434 10.1309 14.9237 9.71125L14.4265 9.21404L12.7462 10.8943L13.7407 11.8888L14.4982 11.1313C15.4398 11.643 16.6449 11.5011 17.4402 10.7058C17.9091 10.2369 18.1674 9.61341 18.1674 8.95029C18.1674 8.28716 17.9091 7.66374 17.4402 7.19484C16.4723 6.22684 14.8973 6.2268 13.9293 7.19474Z" fill="#343434"/>
</g>
<defs>
<clipPath id="clip0">
<rect width="24" height="24" fill="white" transform="translate(0 0.633331)"/>
</clipPath>
</defs>
</svg>
