<svg width="20" height="20" viewBox="0 0 32 32" fill="none" xmlns="http://www.w3.org/2000/svg">
<g clip-path="url(#clip0_3102_363)">
<path d="M31.6664 8.32152C31.6657 8.32085 31.665 8.32018 31.6644 8.31944L31.6632 8.32058L27.0919 3.74926C26.6379 3.31079 25.9144 3.32338 25.476 3.77738C25.0482 4.22027 25.0482 4.92237 25.476 5.36526L28.0976 7.98691H21.7138C17.2978 7.99193 13.7191 11.5706 13.714 15.9867C13.7102 19.141 11.1541 21.6971 7.99988 21.7008H1.14292C0.511661 21.7008 0 22.2125 0 22.8437C0 23.4748 0.511661 23.9865 1.14285 23.9865H7.99981C12.4159 23.9815 15.9945 20.4028 15.9996 15.9867C16.0034 12.8324 18.5595 10.2764 21.7137 10.2726H28.0975L25.477 12.8931C25.023 13.3316 25.0104 14.0551 25.449 14.509C25.8874 14.9631 26.611 14.9756 27.0649 14.5371C27.0744 14.5279 27.0838 14.5186 27.093 14.509L31.6643 9.93772C32.1112 9.49195 32.1121 8.76836 31.6664 8.32152Z" fill="#7987A1"/>
<path d="M31.6668 22.0351C31.6661 22.0344 31.6655 22.0337 31.6648 22.0331L31.6637 22.0342L27.0923 17.4629C26.6383 17.0244 25.9148 17.037 25.4764 17.491C25.0486 17.9339 25.0486 18.636 25.4764 19.0788L28.098 21.7005H21.7142C20.3083 21.7015 18.9515 21.1834 17.904 20.2456C17.4299 19.829 16.7078 19.8757 16.2912 20.3498C15.88 20.8177 15.9193 21.5286 16.3795 21.9484C17.8458 23.2618 19.7456 23.9875 21.7142 23.9861H28.098L25.4775 26.6066C25.0235 27.0451 25.0109 27.7685 25.4494 28.2225C25.8879 28.6765 26.6113 28.6891 27.0653 28.2507C27.0748 28.2414 27.0842 28.2321 27.0935 28.2225L31.6648 23.6512C32.1116 23.2055 32.1125 22.4819 31.6668 22.0351Z" fill="#7987A1"/>
<path d="M13.3345 10.0242C11.8682 8.71084 9.96836 7.98517 7.9998 7.98657H1.14285C0.51166 7.98657 0 8.49823 0 9.12942C0 9.76061 0.51166 10.2723 1.14285 10.2723H7.9998C9.40574 10.2713 10.7625 10.7893 11.81 11.7271C12.2841 12.1437 13.0062 12.0971 13.4228 11.623C13.834 11.155 13.7947 10.444 13.3345 10.0242Z" fill="#7987A1"/>
</g>
<defs>
<clipPath id="clip0_3102_363">
<rect width="32" height="32" fill="white"/>
</clipPath>
</defs>
</svg>
