<svg width="18" height="18" viewBox="0 0 18 18" fill="none" xmlns="http://www.w3.org/2000/svg">
<g clip-path="url(#clip0)">
<path d="M8.82031 9.55879C8.87978 9.56099 8.93938 9.5625 8.99953 9.5625C9.05528 9.5625 9.11077 9.56126 9.16611 9.5592C10.4251 9.5864 11.6634 9.91956 12.7575 10.5285C13.0969 10.7173 13.5251 10.5954 13.7139 10.256C13.9027 9.91667 13.7808 9.48848 13.4414 9.29965C12.9377 9.01936 12.4083 8.78838 11.8617 8.60875C13.026 7.73589 13.7808 6.34502 13.7808 4.78125C13.7808 2.14481 11.6358 0 8.99953 0C6.36308 0 4.21828 2.14481 4.21828 4.78125C4.21828 6.34598 4.97386 7.73767 6.13938 8.6104C5.07164 8.96182 4.06969 9.50853 3.19271 10.2298C1.58499 11.5523 0.467134 13.3969 0.0451221 15.4238C-0.0871259 16.059 0.071352 16.7113 0.479769 17.2137C0.886126 17.7134 1.48886 18 2.13321 18H7.62844C8.01666 18 8.33156 17.6852 8.33156 17.2969C8.33156 16.9085 8.01666 16.5938 7.62844 16.5938H2.13321C1.83301 16.5938 1.65201 16.4262 1.57071 16.3264C1.4305 16.1539 1.37625 15.9295 1.42185 15.7104C2.15202 12.2032 5.24715 9.64188 8.82031 9.55879ZM5.62453 4.78125C5.62453 2.9203 7.13844 1.40625 8.99953 1.40625C10.8605 1.40625 12.3745 2.9203 12.3745 4.78125C12.3745 6.58617 10.9504 8.06451 9.16693 8.15213C9.11104 8.15103 9.05528 8.15034 8.99953 8.15034C8.9446 8.15034 8.8898 8.15117 8.83501 8.15213C7.05014 8.06616 5.62453 6.58713 5.62453 4.78125ZM17.9995 13.0721C18.0002 13.5417 17.8166 13.9831 17.4828 14.3152L16.175 15.6157C16.0378 15.7522 15.8584 15.8203 15.6792 15.8203C15.4986 15.8203 15.318 15.7511 15.1806 15.6129C14.9067 15.3376 14.908 14.8925 15.1833 14.6187L16.0599 13.7469H12.0753C11.2903 13.7469 10.6519 14.3855 10.6519 15.1703C10.6519 15.9552 11.2826 16.5938 12.0581 16.5938C12.4464 16.5938 12.7612 16.9085 12.7612 17.2969C12.7612 17.6852 12.4464 18 12.0581 18C11.3019 18 10.5932 17.7047 10.063 17.1685C9.5358 16.6354 9.24562 15.9258 9.24562 15.1703C9.24562 13.61 10.515 12.3407 12.0753 12.3407H15.9953L15.1847 11.5391C14.9087 11.2659 14.9061 10.8207 15.1792 10.5447C15.4522 10.2686 15.8974 10.266 16.1736 10.5392L17.4793 11.8304C17.8141 12.1615 17.9988 12.6024 17.9995 13.0721Z" fill="white"/>
</g>
<defs>
<clipPath id="clip0">
<rect width="18" height="18" fill="white"/>
</clipPath>
</defs>
</svg>
