<svg width="18" height="19" viewBox="0 0 18 19" fill="none" xmlns="http://www.w3.org/2000/svg">
<g clip-path="url(#clip0)">
<path d="M11.0036 9.02113C8.93589 9.02113 7.25366 7.26183 7.25366 5.09923C7.25366 2.93662 8.93589 1.17718 11.0036 1.17718C13.0713 1.17718 14.7535 2.93662 14.7535 5.09923C14.7535 7.26183 13.0713 9.02113 11.0036 9.02113ZM11.0036 2.35378C9.55618 2.35378 8.37862 3.58525 8.37862 5.09923C8.37862 6.61306 9.55618 7.84453 11.0036 7.84453C12.451 7.84453 13.6285 6.61306 13.6285 5.09923C13.6285 3.58525 12.451 2.35378 11.0036 2.35378Z" fill="#7987A1"/>
<path d="M17.191 17.6496H4.81639C4.5059 17.6496 4.25391 17.386 4.25391 17.0613V14.3158C4.25391 12.2615 5.85209 10.59 7.81625 10.59H14.1911C16.1553 10.59 17.7535 12.2615 17.7535 14.3158V17.0613C17.7535 17.386 17.5015 17.6496 17.191 17.6496ZM5.37887 16.473H16.6285V14.3158C16.6285 12.9103 15.535 11.7666 14.1911 11.7666H7.81625C6.47239 11.7666 5.37887 12.9103 5.37887 14.3158V16.473Z" fill="#7987A1"/>
<path d="M5.88987 8.17143H-0.484881C-0.795372 8.17143 -1.04736 7.90787 -1.04736 7.58313C-1.04736 7.25838 -0.795372 6.99483 -0.484881 6.99483H5.88987C6.20037 6.99483 6.45236 7.25838 6.45236 7.58313C6.45236 7.90787 6.20037 8.17143 5.88987 8.17143Z" fill="#7987A1"/>
<path d="M2.88998 11.309C2.74593 11.309 2.60201 11.2517 2.49243 11.1365C2.27271 10.9065 2.27271 10.5339 2.49243 10.3041L5.09487 7.58225L2.49243 4.86036C2.27271 4.63056 2.27271 4.25799 2.49243 4.02818C2.71215 3.79838 3.06837 3.79838 3.28822 4.02818L6.28808 7.16573C6.5078 7.39553 6.5078 7.76825 6.28808 7.99805L3.28822 11.1356C3.17795 11.2517 3.0339 11.309 2.88998 11.309Z" fill="#7987A1"/>
</g>
<defs>
<clipPath id="clip0">
<rect width="18" height="18.8262" fill="white"/>
</clipPath>
</defs>
</svg>
