<svg width="20" height="20" viewBox="0 0 97 99" fill="none" xmlns="http://www.w3.org/2000/svg">
<path fill-rule="evenodd" clip-rule="evenodd" d="M11.5261 6.00054C12.5687 3.4141 14.313 1.70986 16.7591 0.867764L18.0824 0.426666L45.0495 0.406616C67.2648 0.406616 72.1971 0.466766 73.0392 0.687315C76.0066 1.46926 78.2522 3.7349 79.0141 6.72234C79.2948 7.74488 79.3349 10.2712 79.3349 25.7697V43.6342L80.4977 43.8748C81.1193 44.0152 82.3624 44.4161 83.2646 44.777C91.6054 48.1655 96.9186 56.9273 95.9763 65.6891C95.2946 72.1051 92.0264 77.5386 86.7734 80.9872C85.7709 81.6488 84.7684 82.2503 84.5478 82.3105C84.3273 82.3907 84.1468 82.531 84.1468 82.6513C84.1468 82.7716 84.7283 85.6989 85.4501 89.1274L86.7734 95.383L86.4125 96.4457C85.8912 97.9895 84.9488 98.7113 83.2446 98.8115C82.0215 98.8917 81.8611 98.8516 78.8136 97.4682C77.0692 96.6863 75.5454 96.0447 75.4051 96.0447C75.2647 96.0447 73.781 96.6863 72.0768 97.4682C68.5079 99.1323 67.726 99.2927 66.4027 98.6511C64.6182 97.789 63.9766 96.0246 64.5781 93.7189C64.7586 93.0372 64.8989 92.4156 64.8989 92.3555C64.8989 92.2953 54.5732 92.2352 41.9618 92.2352C38.2553 92.2352 34.9213 92.2299 31.9999 92.2202V88.415C34.9215 88.4223 38.3366 88.4257 42.2826 88.4257H65.8814L66.0819 87.6638C66.2022 87.2628 66.4829 86.0999 66.7034 85.1175C66.8603 84.4046 67.0272 83.7221 67.125 83.3224L67.1251 83.322L67.1253 83.3215L67.1254 83.3211C67.1649 83.1594 67.1931 83.0441 67.2047 82.9922C67.2849 82.7716 67.0643 82.5711 66.4628 82.2904C63.9365 81.1676 60.4879 78.2804 58.7837 75.8945C53.8715 68.9773 53.9116 59.3333 58.884 51.9148C60.1471 50.0502 62.7335 47.564 64.6784 46.381C67.4052 44.6968 71.2146 43.5139 73.9214 43.5139H75.1244V25.6093C75.1244 8.62707 75.1043 7.68473 74.7434 6.92284C74.2823 5.94039 73.4602 5.13839 72.4778 4.7374C71.8161 4.4567 68.7084 4.4166 44.9092 4.4166C20.8693 4.43665 18.0222 4.4567 17.4809 4.75745C16.5185 5.25869 15.8368 6.00054 15.3356 7.10328L14.8744 8.12583L14.8143 46.2808C14.8021 54.6875 14.7991 61.5301 14.8055 67H11.0064C10.9981 61.2008 10.9981 54.0506 11.0048 45.5991L11.0649 7.12333L11.5261 6.00054ZM91.4049 59.6541C89.5403 53.0978 84.3273 48.4662 77.7509 47.5239C70.954 46.5414 63.9566 50.2707 60.7887 56.5463C59.4854 59.1528 59.1847 60.4962 59.1847 63.9648C59.1847 66.6715 59.2449 67.273 59.6458 68.5763C60.8087 72.2254 62.9541 75.273 65.8212 77.318C75.2848 84.0749 88.1769 79.5035 91.4049 68.2555C92.0465 65.9698 92.0465 61.9398 91.4049 59.6541ZM79.2948 84.0548C78.8537 84.1551 77.2497 84.2353 75.7459 84.2353C74.2422 84.2553 72.578 84.1551 72.0567 84.0548C71.355 83.9145 71.0543 83.9145 71.0142 84.0949C70.8137 84.6563 68.528 94.7214 68.5881 94.7815C68.6282 94.8216 70.0517 94.2201 71.776 93.4382C73.5003 92.6763 75.1043 92.0347 75.365 92.0347C75.6056 92.0347 77.2697 92.6562 79.0542 93.4382C79.4787 93.6174 79.8867 93.79 80.2628 93.9492L80.2759 93.9547C81.4916 94.4691 82.3719 94.8417 82.4025 94.8417C82.4626 94.8417 81.6406 90.8317 80.4176 85.2979L80.1168 83.8543L79.2948 84.0548ZM16.2812 67.0555C15.4132 67.1586 14.2359 67.4164 13.2476 67.7344C12.1648 68.0781 10.2484 69.0578 9.23434 69.7711C8.22028 70.493 6.52731 72.1774 5.83981 73.1485C5.33278 73.8531 5.32419 73.8875 5.32419 74.4375C5.32419 75.0992 5.47887 75.3742 6.02028 75.6406C6.78512 76.0188 7.33512 75.7696 8.12575 74.6953C9.93044 72.2375 12.6031 70.5617 15.7656 69.9086C16.7882 69.6938 19.1257 69.7024 20.1914 69.9086C23.9898 70.6735 27.1351 73.0024 28.8625 76.3196C29.1203 76.8266 29.4468 77.5828 29.5929 78.0125C29.8679 78.8375 30.1515 80.0235 30.0828 80.0922C30.057 80.1094 29.7562 79.9117 29.4211 79.6453C29.0773 79.3789 28.6476 79.1211 28.4757 79.0696C27.625 78.8117 26.7656 79.4649 26.7656 80.3672C26.7656 81.0461 26.8429 81.1321 29.0859 82.8594C31.2 84.4922 31.7414 84.7328 32.4031 84.3289C32.6867 84.1571 35.4539 80.6422 35.7203 80.118C36.1757 79.2328 35.514 78.2016 34.5 78.2016C33.95 78.2102 33.632 78.3992 33.1851 78.9922L32.8328 79.4563L32.6523 78.6914C31.432 73.5094 27.7281 69.4016 22.7695 67.7516C20.7414 67.0727 18.3609 66.8235 16.2812 67.0555ZM0.279656 83.8906C0.546062 83.3578 3.31325 79.843 3.59684 79.6711C4.25856 79.2672 4.79997 79.5078 6.91403 81.1321C9.13981 82.8422 9.23434 82.9453 9.23434 83.6328C9.23434 84.5352 8.37497 85.1883 7.51559 84.9305C7.33512 84.8789 6.91403 84.6211 6.57028 84.3547C6.23512 84.0883 5.94294 83.8906 5.91716 83.9078C5.84841 83.9766 6.132 85.1711 6.407 85.9875C6.75075 87.0102 7.48122 88.4196 8.12575 89.2703C9.96481 91.7367 12.5601 93.3867 15.6195 94.0485C16.7711 94.2977 19.1086 94.3149 20.2515 94.0914C23.3367 93.4727 26.1039 91.7367 27.8742 89.3047C28.6562 88.2305 29.2148 87.9813 29.9797 88.3594C30.5211 88.6258 30.6757 88.9008 30.6757 89.5625C30.6757 90.1125 30.6672 90.1469 30.1601 90.843C26.0093 96.6266 18.1547 98.6461 11.6578 95.6125C7.43825 93.6446 4.43044 89.9149 3.34762 85.3086L3.16716 84.5438L2.81481 85.0078C2.36794 85.6008 2.03278 85.7985 1.49997 85.7985C0.485906 85.7985 -0.175813 84.7672 0.279656 83.8906Z" fill="#474E68"/>
</svg>
