<svg width="18" height="18" viewBox="0 0 18 18" fill="none" xmlns="http://www.w3.org/2000/svg">
<path d="M9 0C4.0372 0 0 4.0372 0 9C0 13.9628 4.0372 18 9 18C13.9628 18 18 13.9628 18 9C18 4.0372 13.9628 0 9 0ZM12.3143 11.2537C12.6075 11.547 12.6075 12.021 12.3143 12.3143C12.168 12.4606 11.9761 12.534 11.7839 12.534C11.5919 12.534 11.4 12.4606 11.2537 12.3143L9 10.0605L6.74629 12.3143C6.60004 12.4606 6.40805 12.534 6.21606 12.534C6.02394 12.534 5.83195 12.4606 5.6857 12.3143C5.3925 12.021 5.3925 11.547 5.6857 11.2537L7.93954 9L5.6857 6.74629C5.3925 6.45296 5.3925 5.97903 5.6857 5.6857C5.97903 5.3925 6.45296 5.3925 6.74629 5.6857L9 7.93954L11.2537 5.6857C11.547 5.3925 12.021 5.3925 12.3143 5.6857C12.6075 5.97903 12.6075 6.45296 12.3143 6.74629L10.0605 9L12.3143 11.2537Z" fill="#C6C3BD"/>
</svg>
