<svg width="16" height="16" viewBox="0 0 16 16" fill="none" xmlns="http://www.w3.org/2000/svg">
<path d="M14.4321 3.37304H13.7108V2.21906C13.7108 2.03955 13.5652 1.89404 13.3857 1.89404C13.2062 1.89404 13.0607 2.03955 13.0607 2.21906V3.37304H2.93928V2.21906C2.93928 2.03955 2.79377 1.89404 2.61426 1.89404C2.43475 1.89404 2.28924 2.03955 2.28924 2.21906V3.37304H1.56795C0.703394 3.37304 0 4.07643 0 4.94098V12.5381C0 13.4027 0.703394 14.1061 1.56795 14.1061H14.4321C15.2967 14.1061 16 13.4027 16 12.5381V4.94098C16 4.07643 15.2967 3.37304 14.4321 3.37304ZM15.35 4.94098V6.21996H8.32522V4.02308H14.4321C14.9382 4.02308 15.35 4.43485 15.35 4.94098ZM1.56795 4.02308H7.67518V6.21996H0.650041V4.94098C0.650041 4.43485 1.06182 4.02308 1.56795 4.02308ZM0.650041 12.5381V6.86995H7.67518V13.456H1.56795C1.06182 13.456 0.650041 13.0442 0.650041 12.5381ZM14.4321 13.456H8.32522V6.86995H15.35V12.5381C15.35 13.0442 14.9382 13.456 14.4321 13.456Z" fill="#3499FF"/>
<path d="M4.20213 7.82056H4.12313C3.34553 7.82056 2.71289 8.4532 2.71289 9.2308V11.0834C2.71289 11.861 3.34553 12.4936 4.12313 12.4936H4.20213C4.97973 12.4936 5.61237 11.861 5.61237 11.0834V9.2308C5.61237 8.4532 4.97973 7.82056 4.20213 7.82056ZM4.96233 11.0834C4.96233 11.5026 4.62131 11.8436 4.20213 11.8436H4.12313C3.70395 11.8436 3.36293 11.5026 3.36293 11.0834V9.2308C3.36293 8.81162 3.70395 8.4706 4.12313 8.4706H4.20213C4.62131 8.4706 4.96233 8.81162 4.96233 9.2308V11.0834Z" fill="#3499FF"/>
<path d="M11.8808 7.82056H11.8018C11.0242 7.82056 10.3916 8.4532 10.3916 9.2308V11.0834C10.3916 11.861 11.0242 12.4936 11.8018 12.4936H11.8808C12.6584 12.4936 13.2911 11.861 13.2911 11.0834V9.2308C13.2911 8.4532 12.6584 7.82056 11.8808 7.82056ZM12.641 11.0834C12.641 11.5026 12.3 11.8436 11.8808 11.8436H11.8018C11.3827 11.8436 11.0416 11.5026 11.0416 11.0834V9.2308C11.0416 8.81162 11.3827 8.4706 11.8018 8.4706H11.8808C12.3 8.4706 12.641 8.81162 12.641 9.2308V11.0834Z" fill="#3499FF"/>
</svg>
