<svg width="16" height="16" viewBox="0 0 16 16" fill="none" xmlns="http://www.w3.org/2000/svg">
<path d="M14.4321 3.37302H13.7108V2.21904C13.7108 2.03953 13.5652 1.89402 13.3857 1.89402C13.2062 1.89402 13.0607 2.03953 13.0607 2.21904V3.37302H2.93928V2.21904C2.93928 2.03953 2.79377 1.89402 2.61426 1.89402C2.43475 1.89402 2.28924 2.03953 2.28924 2.21904V3.37302H1.56795C0.703394 3.37302 0 4.07641 0 4.94096V12.5381C0 13.4026 0.703394 14.106 1.56795 14.106H14.4321C15.2967 14.106 16 13.4026 16 12.5381V4.94096C16 4.07641 15.2967 3.37302 14.4321 3.37302ZM15.35 4.94096V6.21994H8.32522V4.02306H14.4321C14.9382 4.02306 15.35 4.43483 15.35 4.94096ZM1.56795 4.02306H7.67518V6.21994H0.650041V4.94096C0.650041 4.43483 1.06182 4.02306 1.56795 4.02306ZM0.650041 12.538V6.86994H7.67518V13.4559H1.56795C1.06182 13.4559 0.650041 13.0442 0.650041 12.538ZM14.4321 13.4559H8.32522V6.86994H15.35V12.538C15.35 13.0442 14.9382 13.4559 14.4321 13.4559Z" fill="#7987A1"/>
<path d="M4.20225 7.82049H4.12325C3.34565 7.82049 2.71301 8.45313 2.71301 9.23073V11.0833C2.71301 11.8609 3.34565 12.4936 4.12325 12.4936H4.20225C4.97985 12.4936 5.61249 11.8609 5.61249 11.0833V9.23073C5.61249 8.45313 4.97985 7.82049 4.20225 7.82049ZM4.96245 11.0833C4.96245 11.5025 4.62143 11.8435 4.20225 11.8435H4.12325C3.70407 11.8435 3.36305 11.5025 3.36305 11.0833V9.23073C3.36305 8.81155 3.70407 8.47053 4.12325 8.47053H4.20225C4.62143 8.47053 4.96245 8.81155 4.96245 9.23073V11.0833Z" fill="#7987A1"/>
<path d="M11.8807 7.82049H11.8017C11.0241 7.82049 10.3915 8.45313 10.3915 9.23073V11.0833C10.3915 11.8609 11.0241 12.4936 11.8017 12.4936H11.8807C12.6583 12.4936 13.291 11.8609 13.291 11.0833V9.23073C13.291 8.45313 12.6583 7.82049 11.8807 7.82049ZM12.6409 11.0833C12.6409 11.5025 12.2999 11.8435 11.8807 11.8435H11.8017C11.3825 11.8435 11.0415 11.5025 11.0415 11.0833V9.23073C11.0415 8.81155 11.3825 8.47053 11.8017 8.47053H11.8807C12.2999 8.47053 12.6409 8.81155 12.6409 9.23073V11.0833Z" fill="#7987A1"/>
</svg>
