<svg width="18" height="18" viewBox="0 0 18 18" fill="none" xmlns="http://www.w3.org/2000/svg">
<path d="M16.8749 10.7693C16.8731 11.9548 16.2495 13.0525 15.2322 13.6611L15.7948 14.6231C17.1516 13.8109 17.9872 12.3506 18.0001 10.7693H16.8749Z" fill="#B9BEC7"/>
<path d="M5.62304 3.89448L4.90292 3.01685C3.80546 3.90581 3.08249 5.17501 2.87761 6.57241C0.559463 7.46953 -0.592542 10.076 0.30454 12.3941C0.665686 13.3274 1.32761 14.1137 2.18559 14.6287L2.74818 13.6667C1.15022 12.7065 0.633162 10.6327 1.59332 9.03472C2.02961 8.30859 2.723 7.77308 3.5358 7.53444C3.75841 7.46773 3.91713 7.27104 3.93524 7.03936C4.04037 5.80328 4.65106 4.66537 5.62304 3.89448Z" fill="#B9BEC7"/>
<path d="M16.1492 9.24472L14.9622 8.05766C15.3548 7.53244 15.6101 6.9175 15.7048 6.26862H17.4376V5.14344H15.7048C15.6101 4.49457 15.3548 3.87962 14.9622 3.35441L16.1492 2.16735L15.3504 1.36847L14.1633 2.55553C13.6381 2.16292 13.0231 1.90764 12.3743 1.81291V0.0801392H11.2491V1.81291C10.4648 1.92789 9.73341 2.27691 9.15064 2.81432L7.71041 1.36847L6.91153 2.16735L8.43615 3.68634C8.16821 4.13268 7.99223 4.62808 7.91857 5.14344H6.18579V6.26862H8.99874V5.70603C8.99874 4.15248 10.2581 2.89309 11.8117 2.89309C13.3652 2.89309 14.6246 4.15248 14.6246 5.70603C14.6246 7.25959 13.3652 8.51898 11.8117 8.51898V9.64416C12.6599 9.64173 13.4847 9.3655 14.1633 8.85653L15.3504 10.0436L16.1492 9.24472Z" fill="#B9BEC7"/>
<path d="M12.5374 11.4951L11.0184 13.0197H9.56127V11.5626L11.0859 10.0436L10.287 9.24472L8.99869 10.5387L7.71036 9.24472L6.91148 10.0436L8.4361 11.5626V13.0197H6.979L5.46001 11.4951L4.66113 12.294L5.95508 13.5823L4.66113 14.8706L5.46001 15.6695L6.979 14.1449H8.4361V15.602L6.91148 17.121L7.71036 17.9198L8.99869 16.6259L10.287 17.9198L11.0859 17.121L9.56127 15.602V14.1449H11.0184L12.5374 15.6695L13.3362 14.8706L12.0423 13.5823L13.3362 12.294L12.5374 11.4951Z" fill="#B9BEC7"/>
</svg>
