<svg width="18" height="18" viewBox="0 0 18 18" fill="none" xmlns="http://www.w3.org/2000/svg">
<path d="M15.8654 15.3553H3.02198C2.18865 15.3553 1.51099 14.6777 1.51099 13.8444C1.51099 13.0111 2.18869 12.3334 3.02198 12.3334H4.53298C4.94999 12.3334 5.28847 11.9949 5.28847 11.5779C5.28847 11.1609 4.94999 10.8224 4.53298 10.8224H3.02198C1.35536 10.8224 0 12.1777 0 13.8444C0 15.511 1.35536 16.8663 3.02198 16.8663H15.8654C16.2825 16.8663 16.6209 16.5279 16.6209 16.1108C16.6209 15.6938 16.2825 15.3553 15.8654 15.3553Z" fill="black" fill-opacity="0.2"/>
<path d="M17.1558 1.97848C16.0286 0.852797 14.1943 0.851286 13.0648 1.97848L11.9089 3.1344C11.8945 3.1465 11.8771 3.15103 11.8635 3.16464C11.85 3.17824 11.8454 3.19561 11.8333 3.20995L7.95687 7.08639C7.21044 7.83433 6.79944 8.82857 6.79944 9.88553V11.5779C6.79944 11.9949 7.13792 12.3333 7.55493 12.3333H9.24726C10.3042 12.3333 11.2984 11.9223 12.0479 11.1752L17.1551 6.068C18.2815 4.94081 18.2815 3.10568 17.1558 1.97848ZM10.9804 10.1061C10.5173 10.5677 9.90151 10.8224 9.24726 10.8224H8.31043V9.88553C8.31043 9.23128 8.56503 8.61553 9.02588 8.15316L12.4052 4.77382L14.3589 6.72752L10.9804 10.1061ZM16.0868 4.99973L15.4272 5.65928L13.4735 3.70558L14.1323 3.04679C14.6709 2.50888 15.5481 2.50965 16.086 3.04679C16.6239 3.58545 16.6239 4.46181 16.0868 4.99973Z" fill="black" fill-opacity="0.2"/>
</svg>
