<svg width="32" height="32" viewBox="0 0 32 32" fill="none" xmlns="http://www.w3.org/2000/svg">
<g clip-path="url(#clip0_1769:2)">
<path d="M3.39316 0.093896C2.25566 0.400146 1.39316 1.27515 1.09316 2.4189C0.949414 2.9564 0.949414 29.0439 1.09316 29.5814C1.39316 30.7376 2.26191 31.6064 3.41816 31.9064C3.95566 32.0439 16.7932 32.0439 17.3307 31.9064C18.4869 31.6064 19.3557 30.7376 19.6557 29.5814C19.7369 29.2814 19.7494 28.5314 19.7494 24.9564V20.6876L20.7682 19.9251L21.7807 19.1564L25.6869 19.1251C29.5182 19.0939 29.5994 19.0939 29.8807 18.9626C30.2557 18.7876 30.6619 18.3814 30.8369 18.0064C30.9682 17.7189 30.9682 17.7001 30.9682 12.8751C30.9682 8.05015 30.9682 8.0314 30.8369 7.7439C30.6619 7.3689 30.2557 6.96265 29.8807 6.78765C29.5932 6.6564 29.5557 6.6564 24.6744 6.63765L19.7494 6.62515V4.70015C19.7494 3.20015 19.7307 2.70015 19.6557 2.4189C19.3557 1.26265 18.4869 0.393896 17.3307 0.093896C16.8119 -0.043604 3.89316 -0.037354 3.39316 0.093896ZM17.1682 1.3439C17.5807 1.4689 17.9619 1.75015 18.1869 2.1064C18.2932 2.2689 18.3744 2.42515 18.3744 2.45015C18.3744 2.47515 14.7744 2.50015 10.3744 2.50015C5.97441 2.50015 2.37441 2.47515 2.37441 2.45015C2.37441 2.32515 2.75566 1.81265 2.96816 1.65015C3.09316 1.5564 3.34316 1.42515 3.51816 1.3689C3.82441 1.26265 4.26816 1.2564 10.3494 1.25015C15.9307 1.25015 16.8932 1.26265 17.1682 1.3439ZM18.4994 5.18765V6.6189L16.0807 6.63765C13.7494 6.6564 13.6432 6.66265 13.3682 6.78765C12.9932 6.96265 12.5869 7.3689 12.4119 7.7439C12.2807 8.0314 12.2807 8.05015 12.2807 12.8751C12.2807 17.7001 12.2807 17.7189 12.4119 18.0064C12.5869 18.3814 12.9932 18.7876 13.3682 18.9626C13.6244 19.0814 13.7869 19.0939 14.8307 19.1126L15.9994 19.1376V20.7626C15.9994 22.5251 16.0244 22.6564 16.3557 22.8064C16.6932 22.9626 16.7682 22.9251 17.7682 22.1751L18.4994 21.6189V23.6876V25.7501H10.3744H2.24941V14.7501V3.75015H10.3744H18.4994V5.18765ZM29.5432 8.0814L29.7182 8.25015V12.8751V17.5001L29.5432 17.6689L29.3744 17.8439L25.3869 17.8751C23.0494 17.8939 21.3682 17.9314 21.3119 17.9626C21.2619 18.0001 20.3244 18.6939 19.2369 19.5126L17.2557 20.9939L17.2369 19.6251L17.2182 18.2501L17.0432 18.0814L16.8744 17.9064L15.3744 17.8751L13.8744 17.8439L13.7057 17.6689L13.5307 17.5001V12.8814C13.5307 8.35015 13.5307 8.26265 13.6557 8.12515C13.7244 8.05015 13.8369 7.96265 13.9057 7.9314C13.9744 7.9064 17.4807 7.88765 21.6994 7.8939L29.3744 7.9064L29.5432 8.0814ZM18.4869 28.1689C18.4682 29.2126 18.4557 29.3751 18.3369 29.6314C18.1619 30.0064 17.7557 30.4126 17.3807 30.5876L17.0932 30.7189H10.3744H3.65566L3.36816 30.5876C2.99316 30.4126 2.58691 30.0064 2.41191 29.6314C2.29316 29.3751 2.28066 29.2126 2.26191 28.1689L2.23691 27.0001H10.3744H18.5119L18.4869 28.1689Z" fill="#525867"/>
<path d="M16.4 10.4376C16.2 10.5188 16 10.8063 16 11.0063C16 11.2563 16.2875 11.5563 16.5688 11.6001C16.7625 11.6313 16.8313 11.6063 17.0063 11.4501C17.1813 11.2938 17.2188 11.2188 17.2188 11.0001C17.2188 10.7813 17.1813 10.7063 17.0125 10.5563C16.8063 10.3751 16.6375 10.3376 16.4 10.4376Z" fill="#525867"/>
<path d="M18.9 10.4375C18.7 10.5187 18.5 10.8062 18.5 11.0062C18.5 11.1187 18.5688 11.2625 18.6813 11.3875L18.8625 11.5937L22.8375 11.6125L26.8063 11.625L27.0125 11.4437C27.1813 11.2937 27.2188 11.2187 27.2188 11C27.2188 10.7812 27.1813 10.7062 27.0125 10.5562L26.8125 10.375L22.9188 10.3812C20.7813 10.3812 18.9688 10.4062 18.9 10.4375Z" fill="#525867"/>
<path d="M16.4 14.1876C16.2 14.2688 16 14.5563 16 14.7563C16 15.0063 16.2875 15.3063 16.5688 15.3501C16.7625 15.3813 16.8313 15.3563 17.0063 15.2001C17.1813 15.0438 17.2188 14.9688 17.2188 14.7501C17.2188 14.5313 17.1813 14.4563 17.0125 14.3063C16.8063 14.1251 16.6375 14.0876 16.4 14.1876Z" fill="#525867"/>
<path d="M18.9 14.1875C18.7 14.2687 18.5 14.5562 18.5 14.7562C18.5 14.8687 18.5688 15.0125 18.6813 15.1375L18.8625 15.3437L22.8375 15.3625L26.8063 15.375L27.0125 15.1937C27.1813 15.0437 27.2188 14.9687 27.2188 14.75C27.2188 14.5312 27.1813 14.4562 27.0125 14.3062L26.8125 14.125L22.9188 14.1312C20.7813 14.1312 18.9688 14.1562 18.9 14.1875Z" fill="#525867"/>
<path d="M7.65489 28.3063C7.26739 28.4688 7.14864 28.9938 7.44239 29.2813C7.52989 29.3688 7.69864 29.4563 7.82364 29.4751C8.01114 29.5063 8.07989 29.4813 8.25489 29.3251C8.42989 29.1688 8.46739 29.0938 8.46739 28.8751C8.46739 28.6563 8.42989 28.5813 8.26114 28.4313C8.05489 28.2501 7.88614 28.2126 7.65489 28.3063Z" fill="#525867"/>
<path d="M10.15 28.3126C9.95 28.3938 9.75 28.6813 9.75 28.8813C9.75 28.9938 9.81875 29.1376 9.93125 29.2626L10.1125 29.4688L11.5813 29.4876L13.0563 29.5063L13.2625 29.3251C13.4313 29.1688 13.4688 29.0938 13.4688 28.8751C13.4688 28.6563 13.4313 28.5813 13.2625 28.4313L13.0625 28.2501L11.6688 28.2563C10.9063 28.2563 10.2188 28.2813 10.15 28.3126Z" fill="#525867"/>
</g>
<defs>
<clipPath id="clip0_1769:2">
<rect width="32" height="32" fill="white"/>
</clipPath>
</defs>
</svg>
