<svg width="18" height="18" viewBox="0 0 18 18" fill="none" xmlns="http://www.w3.org/2000/svg">
<g clip-path="url(#clip0)">
<path d="M17.6689 6.40808C17.4632 6.17719 17.1821 6.02702 16.8758 5.98439V5.98375L12.092 5.32292L10.1989 0.79944C9.92248 0.137329 9.16165 -0.175327 8.49958 0.101096C8.18395 0.232885 7.93298 0.483808 7.80123 0.79944L5.90816 5.32292L1.12434 5.98375C0.411612 6.08295 -0.0857526 6.74122 0.0134566 7.45396C0.0560932 7.76025 0.206263 8.04138 0.437149 8.2471L4.04141 11.4612L3.30085 16.5046C3.22062 17.0168 3.45584 17.527 3.89738 17.7986C4.33271 18.077 4.89268 18.0666 5.31735 17.7722L9.00003 15.2678L12.6827 17.7748C13.277 18.1781 14.0857 18.0234 14.489 17.4291C14.6723 17.1591 14.7473 16.83 14.6993 16.5072L13.9587 11.4618L17.563 8.2477C18.1002 7.76898 18.1477 6.94533 17.6689 6.40808ZM12.8441 10.7354C12.6828 10.8795 12.6048 11.0949 12.6364 11.3088L13.4078 16.7084L9.36323 13.9585C9.14519 13.8103 8.85875 13.8103 8.64071 13.9585L4.57234 16.6917L5.36364 11.3062C5.39437 11.0932 5.31641 10.8789 5.15599 10.7354L1.29911 7.25908L6.44677 6.54876C6.67215 6.51768 6.86428 6.36977 6.952 6.15987L9.00771 1.28607C9.01005 1.28893 9.01178 1.29221 9.01287 1.29571L11.0474 6.1573C11.1351 6.36721 11.3273 6.51512 11.5526 6.54619L16.7067 7.288L12.8441 10.7354Z" fill="#7A848E"/>
</g>
<defs>
<clipPath id="clip0">
<rect width="18" height="18" fill="white"/>
</clipPath>
</defs>
</svg>
