<svg width="18" height="18" viewBox="0 0 18 18" fill="none" xmlns="http://www.w3.org/2000/svg">
<g clip-path="url(#clip0)">
<path d="M12.7043 3.55053L3.95947 0.200602C3.67365 0.0717539 3.35675 0 3.02344 0C1.7634 0 0.738281 1.02512 0.738281 2.28516V17.4727C0.738281 17.7639 0.974391 18 1.26562 18H12.5156C12.8069 18 13.043 17.7639 13.043 17.4727V4.04297C13.043 3.82451 12.9082 3.62865 12.7043 3.55053ZM5.26293 1.82936L9.66488 3.51562H4.94828C5.17627 3.16023 5.30859 2.73783 5.30859 2.28516C5.30859 2.12913 5.29288 1.9767 5.26293 1.82936ZM11.9883 16.9453H1.79297V2.28516C1.79297 1.60668 2.34496 1.05469 3.02344 1.05469C3.70192 1.05469 4.25391 1.60668 4.25391 2.28516C4.25391 2.96364 3.70192 3.51562 3.02344 3.51562C2.7322 3.51562 2.49609 3.75173 2.49609 4.04297C2.49609 4.3342 2.7322 4.57031 3.02344 4.57031H11.9883V16.9453Z" fill="#3499FF"/>
<path d="M16.0312 3.58594H15.3281C14.6496 3.58594 14.0977 4.13793 14.0977 4.81641V14.6602C14.0977 14.7234 14.109 14.7861 14.1312 14.8453L15.1859 17.6578C15.2631 17.8637 15.4599 18 15.6797 18C15.8995 18 16.0963 17.8637 16.1735 17.6578L17.2281 14.8453C17.2503 14.7861 17.2617 14.7234 17.2617 14.6602V4.81641C17.2617 4.13793 16.7097 3.58594 16.0312 3.58594ZM15.6797 15.9708L15.386 15.1875H15.9734L15.6797 15.9708ZM16.207 14.1328H15.1523V7.10156H16.207V14.1328ZM16.207 6.04688H15.1523V4.81641C15.1523 4.71948 15.2312 4.64062 15.3281 4.64062H16.0312C16.1282 4.64062 16.207 4.71948 16.207 4.81641V6.04688Z" fill="#3499FF"/>
<path d="M2.84766 6.15234C2.84766 6.44358 3.08377 6.67969 3.375 6.67969H7.59375C7.88498 6.67969 8.12109 6.44358 8.12109 6.15234C8.12109 5.86111 7.88498 5.625 7.59375 5.625H3.375C3.08377 5.625 2.84766 5.86111 2.84766 6.15234Z" fill="#3499FF"/>
<path d="M2.84766 8.26172C2.84766 8.55295 3.08377 8.78906 3.375 8.78906H10.4062C10.6975 8.78906 10.9336 8.55295 10.9336 8.26172C10.9336 7.97048 10.6975 7.73438 10.4062 7.73438H3.375C3.08377 7.73438 2.84766 7.97048 2.84766 8.26172Z" fill="#3499FF"/>
<path d="M10.4062 9.84375H3.375C3.08377 9.84375 2.84766 10.0799 2.84766 10.3711C2.84766 10.6623 3.08377 10.8984 3.375 10.8984H10.4062C10.6975 10.8984 10.9336 10.6623 10.9336 10.3711C10.9336 10.0799 10.6975 9.84375 10.4062 9.84375Z" fill="#3499FF"/>
<path d="M10.4062 11.9531H3.375C3.08377 11.9531 2.84766 12.1892 2.84766 12.4805C2.84766 12.7717 3.08377 13.0078 3.375 13.0078H10.4062C10.6975 13.0078 10.9336 12.7717 10.9336 12.4805C10.9336 12.1892 10.6975 11.9531 10.4062 11.9531Z" fill="#3499FF"/>
<path d="M10.4062 14.7656H7.59375C7.30252 14.7656 7.06641 15.0017 7.06641 15.293C7.06641 15.5842 7.30252 15.8203 7.59375 15.8203H10.4062C10.6975 15.8203 10.9336 15.5842 10.9336 15.293C10.9336 15.0017 10.6975 14.7656 10.4062 14.7656Z" fill="#3499FF"/>
</g>
<defs>
<clipPath id="clip0">
<rect width="18" height="18" fill="white"/>
</clipPath>
</defs>
</svg>
