<svg width="20" height="17" viewBox="0 0 20 17" fill="none" xmlns="http://www.w3.org/2000/svg">
<path fill-rule="evenodd" clip-rule="evenodd" d="M16.875 3.67386H17.2723C18.7764 3.67386 20 4.89304 20 6.3916V11.0567C20 11.4882 19.6503 11.8379 19.2188 11.8379C18.7872 11.8379 18.4375 11.4882 18.4375 11.0567V7.15942L13.0014 10.5223C12.5577 10.7968 12.0601 10.934 11.5625 10.934C11.0649 10.934 10.5673 10.7968 10.1236 10.5223L4.6875 7.15942V13.8469C4.6875 14.4838 5.21027 15.002 5.85266 15.002H8.86719C9.29871 15.002 9.64844 15.3517 9.64844 15.7832C9.64844 16.2148 9.29871 16.5645 8.86719 16.5645H5.85266C4.3486 16.5645 3.125 15.3453 3.125 13.8469V13.0098C1.40182 13.0098 0 11.608 0 9.8848V3.67188C0 1.9487 1.40182 0.546875 3.125 0.546875H13.75C15.4732 0.546875 16.875 1.9487 16.875 3.67188V3.67386ZM1.5625 3.67188V9.8848C1.5625 10.7463 2.26349 11.4473 3.125 11.4473V6.3916C3.125 4.89304 4.3486 3.67386 5.85266 3.67386H15.3125V3.67188C15.3125 2.81036 14.6115 2.10938 13.75 2.10938H3.125C2.26349 2.10938 1.5625 2.81036 1.5625 3.67188ZM10.9456 9.19342C11.3203 9.4252 11.8047 9.4252 12.1794 9.19342L18.0692 5.54993C17.8607 5.35568 17.5803 5.23636 17.2723 5.23636H5.85266C5.54474 5.23636 5.26443 5.35568 5.05585 5.54993L10.9456 9.19342Z" fill="#7987A1"/>
</svg>
