<svg width="18" height="19" viewBox="0 0 18 19" fill="none" xmlns="http://www.w3.org/2000/svg">
<g clip-path="url(#clip0)">
<path d="M11.4831 7.02148C11.2502 7.02148 11.0615 7.21019 11.0615 7.44303V15.4102C11.0615 15.6429 11.2502 15.8318 11.4831 15.8318C11.7159 15.8318 11.9046 15.6429 11.9046 15.4102V7.44303C11.9046 7.21019 11.7159 7.02148 11.4831 7.02148Z" fill="#7987A1"/>
<path d="M6.50846 7.02148C6.27562 7.02148 6.08691 7.21019 6.08691 7.44303V15.4102C6.08691 15.6429 6.27562 15.8318 6.50846 15.8318C6.7413 15.8318 6.93001 15.6429 6.93001 15.4102V7.44303C6.93001 7.21019 6.7413 7.02148 6.50846 7.02148Z" fill="#7987A1"/>
<path d="M2.88378 5.85877V16.2447C2.88378 16.8586 3.10888 17.4351 3.5021 17.8487C3.89351 18.2635 4.43822 18.499 5.0083 18.5H12.984C13.5543 18.499 14.099 18.2635 14.4902 17.8487C14.8835 17.4351 15.1086 16.8586 15.1086 16.2447V5.85877C15.8902 5.65129 16.3967 4.89614 16.2922 4.09405C16.1875 3.29213 15.5043 2.69225 14.6954 2.69209H12.5371V2.16515C12.5396 1.72204 12.3644 1.29654 12.0507 0.983514C11.737 0.670649 11.3109 0.496433 10.8678 0.500055H7.12458C6.68146 0.496433 6.25531 0.670649 5.94162 0.983514C5.62793 1.29654 5.45273 1.72204 5.4552 2.16515V2.69209H3.29692C2.48809 2.69225 1.80489 3.29213 1.70016 4.09405C1.5956 4.89614 2.10211 5.65129 2.88378 5.85877ZM12.984 17.6569H5.0083C4.28755 17.6569 3.72687 17.0378 3.72687 16.2447V5.89582H14.2655V16.2447C14.2655 17.0378 13.7048 17.6569 12.984 17.6569ZM6.29829 2.16515C6.29549 1.94566 6.38177 1.73439 6.53755 1.57944C6.69316 1.42449 6.90492 1.33936 7.12458 1.34314H10.8678C11.0874 1.33936 11.2992 1.42449 11.4548 1.57944C11.6106 1.73422 11.6969 1.94566 11.6941 2.16515V2.69209H6.29829V2.16515ZM3.29692 3.53517H14.6954C15.1145 3.53517 15.4542 3.87488 15.4542 4.29395C15.4542 4.71303 15.1145 5.05273 14.6954 5.05273H3.29692C2.87785 5.05273 2.53814 4.71303 2.53814 4.29395C2.53814 3.87488 2.87785 3.53517 3.29692 3.53517Z" fill="#7987A1" stroke="#7987A1" stroke-width="0.4"/>
<path d="M8.99576 7.02148C8.76292 7.02148 8.57422 7.21019 8.57422 7.44303V15.4102C8.57422 15.6429 8.76292 15.8318 8.99576 15.8318C9.22859 15.8318 9.4173 15.6429 9.4173 15.4102V7.44303C9.4173 7.21019 9.22859 7.02148 8.99576 7.02148Z" fill="#7987A1"/>
</g>
<defs>
<clipPath id="clip0">
<rect width="18" height="18" fill="white" transform="translate(0 0.5)"/>
</clipPath>
</defs>
</svg>
