<svg width="18" height="18" viewBox="0 0 18 18" fill="none" xmlns="http://www.w3.org/2000/svg">
<g clip-path="url(#clip0)">
<path d="M16.7143 11.5715C16.3592 11.5715 16.0714 11.8593 16.0714 12.2143V16.0715C16.0714 16.4265 15.7836 16.7144 15.4285 16.7144H2.57143C2.21638 16.7144 1.92856 16.4265 1.92856 16.0715V12.2143C1.92856 11.8593 1.64074 11.5715 1.28569 11.5715C0.930639 11.5715 0.642822 11.8593 0.642822 12.2143V16.0715C0.642822 17.1366 1.50627 18.0001 2.57139 18.0001H15.4286C16.4937 18.0001 17.3571 17.1366 17.3571 16.0715V12.2143C17.3571 11.8593 17.0693 11.5715 16.7143 11.5715Z" fill="#758184"/>
<path d="M5.34698 4.31212C5.59611 4.5527 5.99106 4.5527 6.24015 4.31212L8.35838 2.19521L8.35838 14.7862C8.35838 15.1412 8.6462 15.429 9.00125 15.429C9.3563 15.429 9.64412 15.1412 9.64412 14.7862L9.64412 2.19518L11.7611 4.31212C12.0165 4.55877 12.4234 4.55169 12.6701 4.29634C12.9107 4.04721 12.9107 3.65226 12.6701 3.40313L9.45578 0.188862C9.20503 -0.0624933 8.798 -0.0630207 8.54664 0.187694C8.54626 0.18807 8.54589 0.188447 8.54547 0.188862L5.3312 3.40313C5.08451 3.65852 5.09159 4.06548 5.34698 4.31212Z" fill="#758184"/>
</g>
<defs>
<clipPath id="clip0">
<rect width="18" height="18" fill="white"/>
</clipPath>
</defs>
</svg>
