<svg width="40" height="40" viewBox="0 0 40 40" fill="none" xmlns="http://www.w3.org/2000/svg">
<g clip-path="url(#clip0)">
<path d="M26.3685 38.9586C26.1602 39.0289 25.9505 39.0972 25.7395 39.16C25.9512 39.0965 26.1602 39.0283 26.3685 38.9586Z" fill="#F9EDE0"/>
<path d="M27.4134 38.5752C27.1885 38.6648 26.9637 38.7531 26.7347 38.8345C26.9637 38.7524 27.1892 38.6648 27.4134 38.5752Z" fill="#F9EDE0"/>
<path d="M20 40C31.0457 40 40 31.0457 40 20C40 8.9543 31.0457 0 20 0C8.9543 0 0 8.9543 0 20C0 31.0457 8.9543 40 20 40Z" fill="#EFECE8"/>
<path d="M25.336 39.2745C25.1319 39.3311 24.9263 39.3848 24.7188 39.4352C24.9263 39.3848 25.1319 39.3311 25.336 39.2745Z" fill="#F9EDE0"/>
<path d="M18.551 39.9421C18.3069 39.9248 18.0634 39.9062 17.8228 39.88C18.0641 39.9062 18.3076 39.9248 18.551 39.9421Z" fill="#F9EDE0"/>
<path d="M15.2808 39.4345C15.0739 39.3841 14.8684 39.3304 14.6636 39.2738C14.8684 39.331 15.0739 39.3848 15.2808 39.4345Z" fill="#F9EDE0"/>
<path d="M17.4089 39.8276C17.1903 39.7993 16.9723 39.7697 16.7558 39.7345C16.9717 39.7697 17.1903 39.7986 17.4089 39.8276Z" fill="#F9EDE0"/>
<path d="M19.9999 40C19.6317 40 19.2668 39.9883 18.9034 39.969C19.2668 39.9883 19.6317 40 19.9999 40Z" fill="#F9EDE0"/>
<path d="M16.3289 39.6579C16.1192 39.6193 15.9103 39.5779 15.7034 39.5324C15.9103 39.5779 16.1192 39.6193 16.3289 39.6579Z" fill="#F9EDE0"/>
<path d="M12.2937 38.4573C11.9827 38.327 11.6751 38.1904 11.3723 38.0456C11.6758 38.1904 11.9834 38.3277 12.2937 38.4573Z" fill="#F9EDE0"/>
<path d="M13.2648 38.8345C13.0365 38.7524 12.811 38.6648 12.5862 38.5752C12.811 38.6648 13.0365 38.7524 13.2648 38.8345Z" fill="#F9EDE0"/>
<path d="M21.0966 39.969C20.7331 39.9883 20.3683 40 20 40C20.3683 40 20.7331 39.9883 21.0966 39.969Z" fill="#F9EDE0"/>
<path d="M22.1773 39.88C21.9359 39.9062 21.6924 39.9248 21.4489 39.9421C21.6924 39.9248 21.9359 39.9062 22.1773 39.88Z" fill="#F9EDE0"/>
<path d="M24.2972 39.5324C24.0896 39.5779 23.8813 39.6193 23.6717 39.6579C23.8807 39.6193 24.0896 39.5779 24.2972 39.5324Z" fill="#F9EDE0"/>
<path d="M23.245 39.7338C23.0284 39.769 22.8105 39.7986 22.5919 39.8269C22.8098 39.7986 23.0284 39.7697 23.245 39.7338Z" fill="#F9EDE0"/>
<path d="M28.6235 38.0467C28.3221 38.1909 28.0159 38.3274 27.7062 38.4571C28.0159 38.3274 28.3221 38.1916 28.6235 38.0467Z" fill="#F9EDE0"/>
<path d="M14.2606 39.16C14.0489 39.0966 13.8399 39.0283 13.6317 38.9586C13.8399 39.0283 14.0489 39.0966 14.2606 39.16Z" fill="#F9EDE0"/>
<path d="M27.7063 38.4593C27.6097 38.5 27.5111 38.5359 27.4139 38.5745C27.5104 38.5359 27.6091 38.5 27.7063 38.4593Z" fill="#F9EDE0"/>
<path d="M28.6511 38.0366C28.6422 38.0399 28.6325 38.0433 28.6235 38.0467C28.6325 38.0433 28.6422 38.0405 28.6511 38.0366Z" fill="#F9EDE0"/>
<path d="M15.7028 39.5324C15.5615 39.5014 15.4208 39.469 15.2808 39.4352C15.4208 39.469 15.5615 39.5014 15.7028 39.5324Z" fill="#F9EDE0"/>
<path d="M16.7553 39.7338C16.6125 39.7104 16.4704 39.6842 16.3284 39.6579C16.4711 39.6842 16.6125 39.711 16.7553 39.7338Z" fill="#F9EDE0"/>
<path d="M18.9034 39.969C18.7854 39.9628 18.6682 39.9504 18.551 39.9421C18.6689 39.9504 18.7854 39.9628 18.9034 39.969Z" fill="#F9EDE0"/>
<path d="M17.8229 39.88C17.6842 39.8648 17.547 39.8455 17.4091 39.8276C17.547 39.8455 17.6842 39.8648 17.8229 39.88Z" fill="#F9EDE0"/>
<path d="M11.3731 38.0453C11.3655 38.0425 11.3573 38.0397 11.3497 38.0369C11.3573 38.0397 11.3655 38.0425 11.3731 38.0453Z" fill="#F9EDE0"/>
<path d="M21.449 39.9421C21.3311 39.9504 21.2146 39.9628 21.0966 39.969C21.2146 39.9628 21.3311 39.9504 21.449 39.9421Z" fill="#F9EDE0"/>
<path d="M25.7393 39.16C25.6055 39.2 25.471 39.2372 25.3359 39.2745C25.471 39.2372 25.6055 39.2 25.7393 39.16Z" fill="#F9EDE0"/>
<path d="M26.7352 38.8345C26.6138 38.8779 26.491 38.9172 26.369 38.9586C26.491 38.9172 26.6138 38.8779 26.7352 38.8345Z" fill="#F9EDE0"/>
<path d="M12.587 38.5752C12.4897 38.5366 12.3911 38.5 12.2946 38.46C12.3911 38.5 12.4897 38.5359 12.587 38.5752Z" fill="#F9EDE0"/>
<path d="M13.6317 38.9586C13.5096 38.9172 13.3862 38.8779 13.2655 38.8345C13.3862 38.8779 13.509 38.9172 13.6317 38.9586Z" fill="#F9EDE0"/>
<path d="M22.5911 39.8276C22.4532 39.8455 22.3159 39.8655 22.1773 39.88C22.3159 39.8648 22.4532 39.8455 22.5911 39.8276Z" fill="#F9EDE0"/>
<path d="M24.7193 39.4345C24.5793 39.4683 24.4386 39.5007 24.2972 39.5317C24.4386 39.5014 24.5793 39.469 24.7193 39.4345Z" fill="#F9EDE0"/>
<path d="M23.6711 39.6579C23.529 39.6842 23.3877 39.711 23.2442 39.7338C23.3877 39.711 23.529 39.6842 23.6711 39.6579Z" fill="#F9EDE0"/>
<path d="M14.6642 39.2745C14.5297 39.2372 14.3945 39.2 14.2607 39.16C14.3945 39.2 14.529 39.2372 14.6642 39.2745Z" fill="#F9EDE0"/>
<path d="M24.578 21.3752C26.8063 19.8917 28.2759 17.36 28.2759 14.4828C28.2759 9.91241 24.5704 6.20689 20.0001 6.20689C15.4297 6.20689 11.7242 9.91241 11.7242 14.4828C11.7242 17.36 13.1939 19.8917 15.4221 21.3752C15.4221 21.3752 15.4228 21.3759 15.4235 21.3759C15.4228 21.3759 15.4228 21.3752 15.4228 21.3752C10.089 22.9828 5.93594 27.3117 4.59869 32.7579L4.59938 32.7586C4.81731 33.0214 5.04352 33.2779 5.27456 33.5297C5.33042 33.591 5.38904 33.6497 5.44628 33.7097C5.62421 33.8986 5.80421 34.0848 5.98904 34.2669C6.06559 34.3421 6.14352 34.4145 6.22145 34.4883C6.39249 34.651 6.56559 34.8117 6.74214 34.9683C6.82973 35.0455 6.91869 35.1221 7.00697 35.1979C7.18007 35.3462 7.35525 35.4917 7.53387 35.6338C7.62766 35.709 7.72214 35.7828 7.81662 35.8566C7.99731 35.9959 8.18076 36.131 8.36628 36.2634C8.46214 36.3317 8.55663 36.4014 8.65387 36.4683C8.84973 36.6035 9.04904 36.7331 9.24973 36.8614C9.34007 36.9186 9.42835 36.9779 9.51938 37.0345C9.75111 37.1772 9.98697 37.3138 10.2249 37.4476C10.2877 37.4828 10.349 37.5207 10.4125 37.5552C10.7201 37.7234 11.0325 37.8848 11.3497 38.0372C11.3573 38.0407 11.3656 38.0441 11.3732 38.0476C11.6759 38.1924 11.9835 38.3297 12.2946 38.4593C12.3911 38.5 12.4897 38.5359 12.587 38.5745C12.8118 38.6641 13.0366 38.7524 13.2656 38.8338C13.387 38.8772 13.5097 38.9165 13.6318 38.9579C13.8401 39.0283 14.0497 39.0965 14.2608 39.1593C14.3946 39.1993 14.529 39.2366 14.6642 39.2738C14.8683 39.3303 15.0739 39.3841 15.2815 39.4345C15.4215 39.4683 15.5621 39.5007 15.7035 39.5317C15.9111 39.5772 16.1194 39.6186 16.329 39.6572C16.4711 39.6834 16.6125 39.7103 16.7559 39.7331C16.9725 39.7683 17.1904 39.7979 17.409 39.8262C17.547 39.8441 17.6842 39.8641 17.8228 39.8786C18.0642 39.9048 18.3077 39.9235 18.5511 39.9407C18.669 39.949 18.7856 39.9614 18.9035 39.9676C19.267 39.9883 19.6318 40 20.0001 40C20.3684 40 20.7332 39.9883 21.0966 39.969C21.2146 39.9628 21.3318 39.9503 21.449 39.9421C21.6932 39.9248 21.9366 39.9062 22.1773 39.88C22.3159 39.8648 22.4532 39.8455 22.5911 39.8276C22.8097 39.7993 23.0277 39.7697 23.2442 39.7345C23.387 39.711 23.529 39.6848 23.6711 39.6586C23.8808 39.62 24.0897 39.5786 24.2966 39.5331C24.438 39.5021 24.5787 39.4697 24.7187 39.4359C24.9256 39.3855 25.1311 39.3317 25.3359 39.2752C25.4704 39.2379 25.6056 39.2007 25.7394 39.1607C25.9511 39.0972 26.1601 39.029 26.3684 38.9593C26.4904 38.9179 26.6139 38.8786 26.7346 38.8352C26.9628 38.7531 27.1884 38.6655 27.4132 38.5759C27.5104 38.5372 27.609 38.5007 27.7056 38.4607C28.0152 38.331 28.3215 38.1952 28.6228 38.0503C28.6318 38.0462 28.6415 38.0421 28.6504 38.0379C28.9677 37.8855 29.2801 37.7241 29.5877 37.5559C29.6511 37.5214 29.7125 37.4834 29.7752 37.4483C30.0132 37.3145 30.249 37.1779 30.4808 37.0352C30.5718 36.9793 30.6608 36.92 30.7504 36.8621C30.9511 36.7338 31.1504 36.6034 31.3463 36.469C31.4428 36.4021 31.538 36.3331 31.6339 36.2641C31.8194 36.131 32.0028 35.9959 32.1835 35.8572C32.2787 35.7841 32.3725 35.7097 32.4663 35.6345C32.6442 35.4924 32.8201 35.3469 32.9932 35.1986C33.0821 35.1228 33.1711 35.0462 33.258 34.969C33.4346 34.8124 33.6077 34.6517 33.7787 34.489C33.8559 34.4152 33.9346 34.3421 34.0111 34.2676C34.1959 34.0855 34.3766 33.8993 34.5539 33.7103C34.6104 33.6497 34.669 33.591 34.7256 33.5303C34.9566 33.2786 35.1828 33.0221 35.4008 32.7593L35.4015 32.7586C34.0649 27.3117 29.9118 22.9828 24.578 21.3752Z" fill="#C6C3BD"/>
</g>
<defs>
<clipPath id="clip0">
<rect width="40" height="40" fill="white"/>
</clipPath>
</defs>
</svg>
