<svg width="18" height="18" viewBox="0 0 18 18" fill="none" xmlns="http://www.w3.org/2000/svg">
<g clip-path="url(#clip0)">
<path d="M16.7532 1.21692H1.24682C0.559358 1.21692 0 1.77628 0 2.46374V12.9839C0 13.6714 0.559358 14.2307 1.24682 14.2307H10.2888L10.0158 15.8958C9.96443 16.2092 10.0681 16.4931 10.2932 16.6551C10.5182 16.8171 10.8201 16.8258 11.1012 16.6777L13.052 15.6509C13.1064 15.6229 13.2564 15.6229 13.3108 15.6509L15.2616 16.6777C15.3951 16.7479 15.5333 16.7829 15.6657 16.7829C15.8122 16.7829 15.9516 16.7401 16.0697 16.655C16.2947 16.493 16.3984 16.209 16.3471 15.8956L16.0741 14.2306H16.7533C17.4407 14.2306 18.0001 13.6713 18.0001 12.9838V2.46374C18 1.77621 17.4406 1.21692 16.7532 1.21692ZM13.1814 12.0936C11.9833 12.0936 11.0084 11.1187 11.0084 9.92057C11.0084 8.72241 11.9833 7.74754 13.1814 7.74754C14.3796 7.74754 15.3545 8.72241 15.3545 9.92057C15.3545 11.1187 14.3796 12.0936 13.1814 12.0936ZM13.8086 14.7052C13.4452 14.5138 12.9176 14.5138 12.5543 14.7052L11.1751 15.4312L11.6135 12.7566C12.0785 13.0147 12.613 13.1622 13.1815 13.1622C13.75 13.1622 14.2844 13.0147 14.7495 12.7566L14.9204 13.7993C14.9208 13.801 14.9209 13.8029 14.9213 13.8046L15.188 15.4312L13.8086 14.7052ZM16.9313 12.9839C16.9313 13.0804 16.8497 13.162 16.7532 13.162H15.8989L15.7037 11.9715C15.7029 11.9668 15.7017 11.9624 15.7007 11.9577C16.1521 11.4007 16.4232 10.6917 16.4232 9.92057C16.4232 8.13306 14.969 6.67884 13.1815 6.67884C11.394 6.67884 9.93978 8.13306 9.93978 9.92057C9.93978 10.6917 10.2109 11.4005 10.6623 11.9577C10.6614 11.9623 10.6601 11.9668 10.6593 11.9715L10.464 13.1629C10.458 13.1627 10.4523 13.162 10.4463 13.162H1.24682C1.15028 13.162 1.0687 13.0804 1.0687 12.9839V2.46374C1.0687 2.3672 1.15028 2.28562 1.24682 2.28562H16.7532C16.8497 2.28562 16.9313 2.3672 16.9313 2.46374V12.9839Z" fill="#3499FF"/>
<path d="M14.8636 4.29211H2.75164C2.45646 4.29211 2.21729 4.53129 2.21729 4.82646C2.21729 5.12164 2.45646 5.36082 2.75164 5.36082H14.8636C15.1588 5.36082 15.3979 5.12164 15.3979 4.82646C15.3979 4.53129 15.1588 4.29211 14.8636 4.29211Z" fill="#3499FF"/>
<path d="M7.8814 7.18958H2.75164C2.45646 7.18958 2.21729 7.42875 2.21729 7.72393C2.21729 8.0191 2.45646 8.25828 2.75164 8.25828H7.8814C8.17658 8.25828 8.41575 8.0191 8.41575 7.72393C8.41575 7.42875 8.17658 7.18958 7.8814 7.18958Z" fill="#3499FF"/>
</g>
<defs>
<clipPath id="clip0">
<rect width="18" height="18" fill="white"/>
</clipPath>
</defs>
</svg>
