<svg width="18" height="18" viewBox="0 0 22 22" fill="none" xmlns="http://www.w3.org/2000/svg">
<path d="M1.375 19.9373V2.06227C1.375 1.68255 1.68279 1.37477 2.0625 1.37477H12.375V4.12477C12.375 4.88415 12.9906 5.49977 13.75 5.49977H16.5V7.56227H17.875V4.81227C17.8761 4.62952 17.8043 4.45386 17.6756 4.32414L13.5506 0.199142C13.4209 0.0704504 13.2452 -0.00126442 13.0625 -0.000233171H2.0625C0.923398 -0.000233171 0 0.923208 0 2.06227V19.9373C0 21.0764 0.923398 21.9998 2.0625 21.9998H6.875V20.6248H2.0625C1.68283 20.6248 1.375 20.317 1.375 19.9373Z" fill="#1bbf89"/>
<path d="M9.01312 11.3781L8.25 12.8975L7.48688 11.3781C7.37039 11.147 7.13389 11.0008 6.875 11H5.5V12.375H6.44875L7.48 14.4375L6.44875 16.5H5.5V17.875H6.875C7.13389 17.8742 7.37039 17.7281 7.48688 17.4969L8.25 15.9775L9.01312 17.4969C9.12961 17.7281 9.36611 17.8742 9.625 17.875H11V16.5H10.0512L9.02 14.4375L10.0512 12.375H11V11H9.625C9.36611 11.0008 9.12961 11.147 9.01312 11.3781Z" fill="#1bbf89"/>
<path d="M19.9375 13.75H18.5625C18.1828 13.75 17.875 13.4422 17.875 13.0625C17.875 12.6828 18.1828 12.375 18.5625 12.375H19.9375C20.3172 12.375 20.625 12.6828 20.625 13.0625H22C22 11.9234 21.0766 11 19.9375 11H18.5625C17.4234 11 16.5 11.9234 16.5 13.0625C16.5 14.2016 17.4234 15.125 18.5625 15.125H19.9375C20.3172 15.125 20.625 15.4328 20.625 15.8125C20.625 16.1922 20.3172 16.5 19.9375 16.5H18.5625C18.1828 16.5 17.875 16.1922 17.875 15.8125H16.5C16.5 16.9516 17.4234 17.875 18.5625 17.875H19.9375C21.0766 17.875 22 16.9516 22 15.8125C22 14.6735 21.0766 13.75 19.9375 13.75Z" fill="#1bbf89"/>
<path d="M13.0625 11H11.6875V17.1875C11.6875 17.5672 11.9953 17.875 12.375 17.875H15.8125V16.5H13.0625V11Z" fill="#1bbf89"/>
</svg>
